G04 EAGLE Gerber RS-274X export*
G75*
%MOMM*%
%FSLAX34Y34*%
%LPD*%
%INCopper Layer 14*%
%IPPOS*%
%AMOC8*
5,1,8,0,0,1.08239X$1,22.5*%
G01*
%ADD10C,1.208000*%
%ADD11C,1.524000*%
%ADD12C,2.700000*%
%ADD13C,2.250000*%
%ADD14C,2.550000*%
%ADD15C,0.660400*%
%ADD16C,0.152400*%
%ADD17C,0.756400*%
%ADD18C,1.056400*%


D10*
X409420Y1283120D03*
X429420Y1283120D03*
X449420Y1283120D03*
X469420Y1283120D03*
X406880Y1097700D03*
X426880Y1097700D03*
X446880Y1097700D03*
X466880Y1097700D03*
X409420Y726860D03*
X429420Y726860D03*
X449420Y726860D03*
X469420Y726860D03*
X409420Y541440D03*
X429420Y541440D03*
X449420Y541440D03*
X469420Y541440D03*
X409420Y356020D03*
X429420Y356020D03*
X449420Y356020D03*
X469420Y356020D03*
X409420Y170600D03*
X429420Y170600D03*
X449420Y170600D03*
X469420Y170600D03*
X409420Y-14820D03*
X429420Y-14820D03*
X449420Y-14820D03*
X469420Y-14820D03*
X409420Y912280D03*
X429420Y912280D03*
X449420Y912280D03*
X469420Y912280D03*
D11*
X1236980Y1151128D03*
X1236980Y1176528D03*
X1236980Y1201928D03*
X1236980Y974852D03*
X1236980Y1000252D03*
X1236980Y1025652D03*
X1236980Y798576D03*
X1236980Y823976D03*
X1236980Y849376D03*
X1236980Y622300D03*
X1236980Y647700D03*
X1236980Y673100D03*
X1236980Y446024D03*
X1236980Y471424D03*
X1236980Y496824D03*
X1236980Y269748D03*
X1236980Y295148D03*
X1236980Y320548D03*
X1236980Y93472D03*
X1236980Y118872D03*
X1236980Y144272D03*
X1236980Y-82804D03*
X1236980Y-57404D03*
X1236980Y-32004D03*
X1026160Y1290320D03*
X1000760Y1290320D03*
X975360Y1290320D03*
X949960Y1290320D03*
X924560Y1290320D03*
X899160Y1290320D03*
X1026160Y1264920D03*
X1000760Y1264920D03*
X975360Y1264920D03*
X949960Y1264920D03*
X924560Y1264920D03*
X899160Y1264920D03*
X873760Y1290320D03*
X873760Y1264920D03*
X848360Y1290320D03*
X822960Y1290320D03*
X797560Y1290320D03*
X772160Y1290320D03*
X746760Y1290320D03*
X721360Y1290320D03*
X848360Y1264920D03*
X822960Y1264920D03*
X797560Y1264920D03*
X772160Y1264920D03*
X746760Y1264920D03*
X721360Y1264920D03*
X695960Y1290320D03*
X695960Y1264920D03*
X670560Y1290320D03*
X645160Y1290320D03*
X619760Y1290320D03*
X594360Y1290320D03*
X568960Y1290320D03*
X543560Y1290320D03*
X670560Y1264920D03*
X645160Y1264920D03*
X619760Y1264920D03*
X594360Y1264920D03*
X568960Y1264920D03*
X543560Y1264920D03*
X680212Y55372D03*
X654812Y55372D03*
X629412Y55372D03*
X680212Y29972D03*
X654812Y29972D03*
X629412Y29972D03*
D12*
X734168Y-65024D03*
X684168Y-65024D03*
D13*
X764168Y-115024D03*
X654168Y-115024D03*
X654168Y-165024D03*
X764168Y-165024D03*
D14*
X162560Y136640D03*
X162560Y97040D03*
X162560Y878320D03*
X162560Y838720D03*
X162560Y692900D03*
X162560Y653300D03*
X162560Y507480D03*
X162560Y467880D03*
X162560Y322060D03*
X162560Y282460D03*
X162560Y-48780D03*
X162560Y-88380D03*
X162560Y1249160D03*
X162560Y1209560D03*
X162560Y1063740D03*
X162560Y1024140D03*
D11*
X645668Y576072D03*
X645668Y550672D03*
X645668Y525272D03*
X645668Y499872D03*
X671068Y576072D03*
X671068Y550672D03*
X671068Y525272D03*
X671068Y499872D03*
D15*
X686816Y693928D03*
X663194Y787146D03*
X692404Y1025652D03*
X685546Y685064D03*
X701040Y998220D03*
X608584Y685292D03*
X641096Y685292D03*
D16*
X645668Y689864D02*
X680746Y689864D01*
X645668Y689864D02*
X641096Y685292D01*
X680746Y689864D02*
X685546Y685064D01*
D15*
X607568Y956056D03*
D16*
X700278Y956056D01*
D15*
X703326Y959104D03*
D16*
X700278Y956056D01*
D15*
X728980Y788416D03*
X716280Y989076D03*
X731520Y743712D03*
X680401Y699008D03*
X667766Y748538D03*
X691388Y981456D03*
X678180Y817880D03*
D17*
X673608Y1052576D03*
D15*
X691388Y1179576D03*
X799592Y1143000D03*
X794766Y748030D03*
X762000Y756920D03*
X661924Y995172D03*
X704088Y1155192D03*
X700024Y637032D03*
X674624Y647192D03*
X699008Y625856D03*
X758190Y635254D03*
X669544Y700532D03*
X683006Y310642D03*
X591566Y303276D03*
X654050Y294386D03*
X785876Y622808D03*
X822452Y575056D03*
X676148Y365252D03*
X652526Y337058D03*
X624332Y1093724D03*
X641096Y1030224D03*
X572516Y1138428D03*
X638048Y1146048D03*
X1012952Y777240D03*
X1021588Y999236D03*
X960120Y1123696D03*
X1016508Y362712D03*
X678434Y1155446D03*
X572008Y1113028D03*
X595884Y1050544D03*
X584200Y1070864D03*
X571500Y1083056D03*
X678180Y1021588D03*
X801624Y985520D03*
X791210Y1021588D03*
X838897Y1137412D03*
X634746Y237236D03*
X555752Y1104900D03*
X532384Y1104900D03*
X507238Y1105662D03*
X747268Y506476D03*
D17*
X256032Y1318260D03*
X272288Y1318260D03*
X290068Y1318260D03*
X308356Y1317752D03*
X256032Y1302004D03*
X272288Y1302004D03*
X290068Y1302512D03*
X308356Y1300988D03*
X256540Y1285748D03*
X271780Y1286256D03*
X289560Y1286256D03*
X308864Y1286256D03*
X262636Y-144272D03*
X278892Y-144272D03*
X296672Y-144272D03*
X314960Y-144272D03*
X263144Y-160020D03*
X278892Y-160020D03*
X296672Y-160020D03*
X314960Y-160020D03*
X263144Y-126492D03*
X278892Y-126492D03*
X296672Y-126492D03*
X314960Y-126492D03*
X262636Y6096D03*
X278892Y6096D03*
X296672Y6096D03*
X314960Y6096D03*
X263144Y-9652D03*
X278892Y-9652D03*
X296672Y-9652D03*
X314960Y-9652D03*
X262636Y57404D03*
X278892Y57404D03*
X296672Y57404D03*
X314960Y57404D03*
X262636Y41148D03*
X278892Y41148D03*
X296672Y41148D03*
X314960Y41148D03*
X263144Y23876D03*
X278892Y23876D03*
X296672Y23876D03*
X314960Y23876D03*
X262636Y194056D03*
X278892Y194056D03*
X296672Y194056D03*
X314960Y194056D03*
X263144Y178308D03*
X278892Y178308D03*
X296672Y178308D03*
X314960Y178308D03*
X262636Y245364D03*
X278892Y245364D03*
X296672Y245364D03*
X314960Y245364D03*
X262636Y229108D03*
X278892Y229108D03*
X296672Y229108D03*
X314960Y229108D03*
X263144Y211836D03*
X278892Y211836D03*
X296672Y211836D03*
X314960Y211836D03*
X260604Y1171448D03*
X276860Y1171448D03*
X294640Y1171448D03*
X312928Y1171448D03*
X260604Y1155192D03*
X276860Y1155192D03*
X294640Y1155192D03*
X312928Y1155192D03*
X261112Y1137920D03*
X276860Y1137920D03*
X294640Y1137920D03*
X312928Y1137920D03*
X260604Y1120140D03*
X276860Y1120140D03*
X294640Y1120140D03*
X312928Y1120140D03*
X261112Y1104392D03*
X276860Y1104392D03*
X294640Y1104392D03*
X312928Y1104392D03*
X261620Y983996D03*
X277876Y983996D03*
X295656Y983996D03*
X313944Y983996D03*
X261620Y967740D03*
X277876Y967740D03*
X295656Y967740D03*
X313944Y967740D03*
X262128Y950468D03*
X277876Y950468D03*
X295656Y950468D03*
X313944Y950468D03*
X261620Y932688D03*
X277876Y932688D03*
X295656Y932688D03*
X313944Y932688D03*
X262128Y916940D03*
X277876Y916940D03*
X295656Y916940D03*
X313944Y916940D03*
X315468Y782828D03*
X299212Y782828D03*
X281432Y782828D03*
X263144Y782828D03*
X314960Y798576D03*
X299212Y798576D03*
X281432Y798576D03*
X263144Y798576D03*
X315468Y731520D03*
X299212Y731520D03*
X281432Y731520D03*
X263144Y731520D03*
X315468Y747776D03*
X299212Y747776D03*
X281432Y747776D03*
X263144Y747776D03*
X314960Y765048D03*
X299212Y765048D03*
X281432Y765048D03*
X263144Y765048D03*
X262128Y376936D03*
X278384Y376936D03*
X296164Y376936D03*
X314452Y376936D03*
X262636Y361188D03*
X278384Y361188D03*
X296164Y361188D03*
X314452Y361188D03*
X262128Y428244D03*
X278384Y428244D03*
X296164Y428244D03*
X314452Y428244D03*
X262128Y411988D03*
X278384Y411988D03*
X296164Y411988D03*
X314452Y411988D03*
X262636Y394716D03*
X278384Y394716D03*
X296164Y394716D03*
X314452Y394716D03*
X261620Y614172D03*
X277876Y614172D03*
X295656Y614172D03*
X313944Y614172D03*
X261620Y597916D03*
X277876Y597916D03*
X295656Y597916D03*
X313944Y597916D03*
X262128Y580644D03*
X277876Y580644D03*
X295656Y580644D03*
X313944Y580644D03*
X261620Y562864D03*
X277876Y562864D03*
X295656Y562864D03*
X313944Y562864D03*
X262128Y547116D03*
X277876Y547116D03*
X295656Y547116D03*
X313944Y547116D03*
X1148080Y-58420D03*
X1148080Y-33020D03*
X1148080Y-12700D03*
X1127760Y-12700D03*
X1127760Y-33020D03*
X1104900Y-12700D03*
X1104900Y-33020D03*
X1084580Y-33020D03*
X1084580Y-12700D03*
X1064260Y-12700D03*
X1064260Y-33020D03*
X1043940Y-12700D03*
X1043940Y-33020D03*
X1021080Y-12700D03*
X1021080Y-33020D03*
X998220Y-33020D03*
X998220Y-12700D03*
X977900Y-12700D03*
X977900Y-33020D03*
X1149096Y358140D03*
X1149096Y378460D03*
X1130300Y378460D03*
X1130300Y358140D03*
X1107440Y378460D03*
X1107440Y358140D03*
X1087120Y358140D03*
X1087120Y378460D03*
X1066800Y378460D03*
X1066800Y358140D03*
X1046480Y378460D03*
X1046480Y358140D03*
X1023620Y378460D03*
X1023620Y358140D03*
X1000760Y358140D03*
X1000760Y378460D03*
X980440Y378460D03*
X980440Y358140D03*
X1163320Y789940D03*
X1163320Y810260D03*
X1143000Y810260D03*
X1143000Y789940D03*
X1120140Y810260D03*
X1120140Y789940D03*
X1099820Y789940D03*
X1099820Y810260D03*
X1079500Y810260D03*
X1079500Y789940D03*
X1059180Y810260D03*
X1059180Y789940D03*
X1036320Y810260D03*
X1036320Y789940D03*
X1013460Y789940D03*
X1013460Y810260D03*
X993140Y810260D03*
X993140Y789940D03*
X977900Y-53340D03*
X977900Y-73660D03*
X977900Y-96520D03*
X995680Y-96520D03*
X995680Y-116840D03*
X977900Y-116840D03*
X995680Y-134620D03*
X977900Y-134620D03*
X1013460Y-170180D03*
X1013460Y-152400D03*
X995680Y-152400D03*
X977900Y-152400D03*
X977900Y-170180D03*
X995680Y-170180D03*
X993140Y769620D03*
X993140Y749300D03*
X993140Y726440D03*
X1010920Y726440D03*
X1010920Y706120D03*
X993140Y706120D03*
X1010920Y688340D03*
X993140Y688340D03*
X1028700Y652780D03*
X1028700Y670560D03*
X1010920Y670560D03*
X993140Y670560D03*
X993140Y652780D03*
X1010920Y652780D03*
X980440Y335280D03*
X980440Y314960D03*
X980440Y292100D03*
X998220Y292100D03*
X998220Y271780D03*
X980440Y271780D03*
X998220Y254000D03*
X980440Y254000D03*
X1016000Y218440D03*
X1016000Y236220D03*
X998220Y236220D03*
X980440Y236220D03*
X980440Y218440D03*
X998220Y218440D03*
X394208Y-112268D03*
X393700Y-128524D03*
X393700Y-145288D03*
X393700Y-162052D03*
X421640Y-112776D03*
X422148Y-128016D03*
X421640Y-145288D03*
X422148Y-162052D03*
X439420Y-112776D03*
X458216Y-113284D03*
X457708Y-129540D03*
X439420Y-128016D03*
X439928Y-144780D03*
X457708Y-145796D03*
X457708Y-162560D03*
X440436Y-162560D03*
X396748Y72136D03*
X396240Y55880D03*
X396240Y39116D03*
X396240Y22352D03*
X424180Y71628D03*
X424688Y56388D03*
X424180Y39116D03*
X424688Y22352D03*
X441960Y71628D03*
X460756Y71120D03*
X460248Y54864D03*
X441960Y56388D03*
X442468Y39624D03*
X460248Y38608D03*
X460248Y21844D03*
X442976Y21844D03*
X397256Y258572D03*
X396748Y242316D03*
X396748Y225552D03*
X396748Y208788D03*
X424688Y258064D03*
X425196Y242824D03*
X424688Y225552D03*
X425196Y208788D03*
X442468Y258064D03*
X461264Y257556D03*
X461264Y241300D03*
X442468Y242824D03*
X442976Y226060D03*
X460756Y225044D03*
X460756Y208280D03*
X443484Y208280D03*
X397764Y443992D03*
X397256Y427736D03*
X397256Y410972D03*
X397256Y394208D03*
X425196Y443484D03*
X425704Y428244D03*
X425196Y410972D03*
X425704Y394208D03*
X442976Y443484D03*
X461772Y442976D03*
X461264Y426720D03*
X442976Y428244D03*
X443484Y411480D03*
X461264Y410464D03*
X461264Y393700D03*
X443992Y393700D03*
X396748Y627888D03*
X396240Y611632D03*
X396240Y594868D03*
X396240Y578104D03*
X424180Y627380D03*
X424688Y612140D03*
X424180Y594868D03*
X424688Y578104D03*
X441960Y627380D03*
X460756Y626872D03*
X460248Y610616D03*
X441960Y612140D03*
X442468Y595376D03*
X460248Y594360D03*
X460248Y577596D03*
X442976Y577596D03*
X397764Y812800D03*
X397256Y796544D03*
X397256Y779780D03*
X397256Y763016D03*
X425196Y812292D03*
X425704Y797052D03*
X425196Y779780D03*
X425704Y763016D03*
X442976Y812292D03*
X461772Y811784D03*
X461264Y795528D03*
X442976Y797052D03*
X443484Y780288D03*
X461264Y779272D03*
X461264Y762508D03*
X443992Y762508D03*
X396748Y998220D03*
X396240Y981964D03*
X396240Y965200D03*
X396240Y948436D03*
X424180Y997712D03*
X424688Y982472D03*
X424180Y965200D03*
X424688Y948436D03*
X441960Y997712D03*
X460756Y997204D03*
X460248Y980948D03*
X441960Y982472D03*
X442468Y965708D03*
X460248Y964692D03*
X460248Y947928D03*
X442976Y947928D03*
X397256Y1185164D03*
X396748Y1168908D03*
X396748Y1152144D03*
X396748Y1135380D03*
X424688Y1184656D03*
X425196Y1169416D03*
X424688Y1152144D03*
X425196Y1135380D03*
X442468Y1184656D03*
X461264Y1184148D03*
X460756Y1167892D03*
X442468Y1169416D03*
X442976Y1152652D03*
X460756Y1151636D03*
X460756Y1134872D03*
X443484Y1134872D03*
D18*
X1108710Y34290D03*
X985520Y55880D03*
X1137412Y581660D03*
X1013460Y576072D03*
X1012698Y465074D03*
X1041908Y1016000D03*
X1024636Y943864D03*
X998220Y883920D03*
X982472Y168656D03*
D17*
X500380Y1294892D03*
X494284Y1123696D03*
X499364Y931672D03*
X501142Y740410D03*
X504190Y554482D03*
X517652Y388084D03*
X496316Y208280D03*
X507492Y-5080D03*
X615188Y1175004D03*
X523212Y999744D03*
X544576Y990092D03*
X551688Y978408D03*
X598424Y1007900D03*
X720852Y705612D03*
X741426Y705612D03*
X721614Y685038D03*
X741426Y685038D03*
X598170Y256540D03*
X643890Y996950D03*
X689610Y339090D03*
X598424Y996696D03*
X534924Y1026160D03*
X530860Y1042416D03*
X531423Y1053112D03*
X564388Y1039180D03*
D15*
X736346Y1056894D03*
X769620Y1062228D03*
X790448Y1063752D03*
X813308Y1019048D03*
D16*
X803148Y1029208D01*
X728980Y1029208D02*
X724408Y1024636D01*
X728980Y1029208D02*
X803148Y1029208D01*
D15*
X724408Y1024636D03*
D17*
X729234Y1192530D03*
D15*
X916940Y1061720D03*
X813816Y1005840D03*
X796290Y1077722D03*
X808228Y1233932D03*
D16*
X836676Y1233932D01*
X861568Y1258824D02*
X861568Y1279144D01*
X872744Y1290320D01*
X873760Y1290320D01*
X861568Y1258824D02*
X836676Y1233932D01*
D15*
X230124Y1245108D03*
D16*
X240284Y1255268D02*
X487680Y1255268D01*
X240284Y1255268D02*
X230124Y1245108D01*
X520700Y1222248D02*
X909828Y1222248D01*
X909828Y1222756D01*
D15*
X909828Y1222756D03*
X910336Y1082548D03*
D16*
X520700Y1222248D02*
X487680Y1255268D01*
D15*
X391922Y1199134D03*
D16*
X887476Y1198880D02*
X891540Y1202944D01*
X887476Y1198880D02*
X393192Y1198880D01*
X392938Y1199134D01*
X391922Y1199134D01*
D15*
X891540Y1202944D03*
X890524Y1096264D03*
X395478Y1019302D03*
D16*
X487426Y1019302D02*
X504852Y1036728D01*
X487426Y1019302D02*
X395478Y1019302D01*
X715770Y1036322D02*
X829054Y1036322D01*
X715770Y1036322D02*
X692912Y1059180D01*
X526823Y1059180D01*
X504852Y1036728D01*
X829054Y1036322D02*
X833120Y1032256D01*
D15*
X833120Y1032256D03*
X833120Y1092200D03*
X224028Y875284D03*
D16*
X244856Y884936D02*
X507173Y884936D01*
X244856Y884936D02*
X235204Y875284D01*
X224028Y875284D01*
X519017Y896779D02*
X864493Y896779D01*
X865349Y897636D01*
X873760Y897636D02*
X874268Y898144D01*
X873760Y897636D02*
X865349Y897636D01*
D15*
X874268Y898144D03*
X874268Y1106932D03*
D16*
X519017Y896779D02*
X507173Y884936D01*
D15*
X379476Y827532D03*
D16*
X515112Y827532D01*
X861060Y880872D02*
X861568Y881380D01*
X861060Y880872D02*
X537972Y880872D01*
D15*
X861568Y881380D03*
X859536Y1098804D03*
D16*
X537972Y880872D02*
X537972Y850392D01*
X515112Y827532D01*
D15*
X384048Y643128D03*
D16*
X549148Y643128D01*
X560832Y654812D01*
D15*
X560832Y654812D03*
X561340Y852932D03*
X836676Y854456D03*
X837184Y1103376D03*
D16*
X836676Y854456D02*
X837184Y854456D01*
X835660Y852932D01*
X561340Y852932D01*
D15*
X230632Y657860D03*
D16*
X388620Y650240D02*
X544068Y650240D01*
X388620Y650240D02*
X381000Y657860D01*
X230632Y657860D01*
X544068Y650240D02*
X554736Y660908D01*
X554736Y663448D01*
D15*
X554736Y663448D03*
X556260Y862076D03*
D16*
X846836Y862584D02*
X848360Y864108D01*
X846836Y862584D02*
X556768Y862584D01*
X556260Y862076D01*
D15*
X848360Y864108D03*
X845312Y1124712D03*
X217932Y502412D03*
D16*
X227584Y512064D02*
X566928Y512064D01*
X227584Y512064D02*
X217932Y502412D01*
X566928Y512064D02*
X567436Y511556D01*
D15*
X567436Y511556D03*
X568960Y950976D03*
D16*
X703072Y950468D02*
X705612Y947928D01*
X703072Y950468D02*
X569468Y950468D01*
X568960Y950976D01*
D15*
X705612Y947928D03*
X218186Y473202D03*
D16*
X387350Y473202D01*
X398018Y462534D01*
D15*
X576072Y472440D03*
X575564Y941324D03*
X724408Y939800D03*
X724408Y986282D03*
D16*
X576072Y472440D02*
X575564Y471932D01*
X575564Y468376D01*
X569722Y462534D01*
X398018Y462534D01*
X724408Y939800D02*
X723900Y940308D01*
X576580Y940308D01*
X575564Y941324D01*
D15*
X386588Y455930D03*
D16*
X582422Y455930D02*
X583184Y456692D01*
X582422Y455930D02*
X386588Y455930D01*
D15*
X583184Y456692D03*
X586232Y933196D03*
D16*
X741172Y933196D01*
X742696Y931672D01*
D15*
X742696Y931672D03*
X231648Y319532D03*
D16*
X239268Y327152D02*
X587756Y327152D01*
X239268Y327152D02*
X231648Y319532D01*
X587756Y327152D02*
X589788Y329184D01*
D15*
X589788Y329184D03*
X592836Y839724D03*
D16*
X737616Y839724D01*
X738632Y840740D01*
X738886Y840486D01*
D15*
X738886Y840486D03*
X736600Y985520D03*
X232664Y286004D03*
D16*
X235712Y289052D02*
X384839Y289052D01*
X235712Y289052D02*
X232664Y286004D01*
X384839Y289052D02*
X396015Y277876D01*
X588264Y277876D01*
X588264Y278384D02*
X599948Y290068D01*
X588264Y278384D02*
X588264Y277876D01*
D15*
X599948Y290068D03*
X600710Y831850D03*
D16*
X729742Y831850D01*
X731520Y833628D01*
X732028Y833628D01*
X732536Y833120D01*
D15*
X732536Y833120D03*
X733298Y996442D03*
X381762Y276606D03*
D16*
X385318Y273050D02*
X709422Y273050D01*
X385318Y273050D02*
X381762Y276606D01*
X723138Y286766D02*
X723138Y287782D01*
X723138Y286766D02*
X709422Y273050D01*
D15*
X723138Y287782D03*
X658876Y807212D03*
D16*
X761492Y809244D02*
X762000Y809752D01*
X761492Y809244D02*
X660908Y809244D01*
X658876Y807212D01*
D15*
X762000Y809752D03*
X758952Y935736D03*
X230632Y134112D03*
D16*
X238252Y141732D01*
X814832Y141732D01*
D15*
X814832Y141732D03*
X824484Y941832D03*
X231902Y101854D03*
D16*
X769112Y90424D02*
X783336Y104648D01*
X811276Y104648D01*
X392430Y104902D02*
X234950Y104902D01*
X231902Y101854D01*
X392430Y104902D02*
X406908Y90424D01*
X769112Y90424D01*
D15*
X811276Y104648D03*
X830580Y927608D03*
X378460Y96520D03*
D16*
X794512Y82296D02*
X805688Y93472D01*
X794512Y82296D02*
X392684Y82296D01*
X378460Y96520D01*
D15*
X805688Y93472D03*
X816864Y949960D03*
X387350Y-97282D03*
D16*
X387858Y-96774D01*
X516128Y-96774D01*
X516128Y-97028D01*
D15*
X516128Y-97028D03*
X767334Y983234D03*
X229616Y-53340D03*
D16*
X392684Y-7112D02*
X404368Y4572D01*
X392684Y-7112D02*
X392684Y-26924D01*
X366268Y-53340D01*
X229616Y-53340D01*
X795020Y4572D02*
X799592Y9144D01*
X795020Y4572D02*
X404368Y4572D01*
D15*
X799592Y9144D03*
X810006Y965454D03*
X229616Y-84328D03*
D16*
X235204Y-89916D02*
X504669Y-89916D01*
X235204Y-89916D02*
X229616Y-84328D01*
X504669Y-89916D02*
X556993Y-37592D01*
X771652Y-37592D01*
X779641Y-29603D01*
X780186Y-29566D02*
X780796Y-28956D01*
X780186Y-29566D02*
X779641Y-29603D01*
D15*
X780796Y-28956D03*
X803910Y957834D03*
X229870Y1213866D03*
D16*
X883412Y1212596D02*
X900176Y1212596D01*
X883412Y1212596D02*
X875030Y1204214D01*
X402082Y1204214D02*
X392430Y1213866D01*
X229870Y1213866D01*
X402082Y1204214D02*
X875030Y1204214D01*
D15*
X900176Y1212596D03*
X899668Y1092708D03*
X227584Y1060704D03*
D16*
X237744Y1070864D02*
X508508Y1070864D01*
X237744Y1070864D02*
X227584Y1060704D01*
X508508Y1070864D02*
X516128Y1063244D01*
X752433Y1063244D01*
X774897Y1040779D01*
X889621Y1040779D02*
X891145Y1039255D01*
X889621Y1040779D02*
X774897Y1040779D01*
D15*
X891145Y1039255D03*
X890016Y1065276D03*
X228092Y1028700D03*
X879856Y1033272D03*
X904748Y1071880D03*
D16*
X879856Y1033272D02*
X859028Y1012444D01*
X625856Y1035652D02*
X579120Y1035812D01*
X569468Y1045464D01*
X558800Y1045464D01*
X548988Y1035652D01*
X521556Y1035652D01*
X498348Y1012444D01*
X386588Y1012444D01*
X370332Y1028700D01*
X228092Y1028700D01*
X625856Y1035652D02*
X649064Y1012444D01*
X859028Y1012444D01*
D15*
X935736Y1053592D03*
X924052Y1044448D03*
X671068Y1083564D03*
D16*
X671068Y1126744D01*
X671576Y1127252D01*
X839216Y1127252D01*
X845312Y1133348D01*
X998728Y1133348D01*
X998728Y1131824D01*
D15*
X998728Y1131824D03*
X230124Y686816D03*
D16*
X240284Y696976D02*
X545084Y696976D01*
X240284Y696976D02*
X230124Y686816D01*
X545338Y696722D02*
X546862Y696722D01*
X545338Y696722D02*
X545084Y696976D01*
D15*
X546862Y696722D03*
X561594Y964438D03*
D16*
X849122Y972566D02*
X851154Y974598D01*
D15*
X851154Y974598D03*
X852170Y1118870D03*
D16*
X569722Y972566D02*
X561594Y964438D01*
X569722Y972566D02*
X849122Y972566D01*
D15*
X223520Y846328D03*
D16*
X374904Y846328D02*
X387096Y834136D01*
X374904Y846328D02*
X223520Y846328D01*
X387096Y834136D02*
X513588Y834136D01*
X529336Y849884D01*
X529082Y850138D01*
X535940Y889508D02*
X865124Y889508D01*
D15*
X867664Y892048D03*
X865124Y1113028D03*
D16*
X867664Y892048D02*
X865124Y889508D01*
X529082Y882650D02*
X529082Y850138D01*
X529082Y882650D02*
X535940Y889508D01*
D15*
X804672Y1159256D03*
D16*
X807212Y1156716D01*
X1027684Y1156716D01*
X1027684Y1196340D01*
X1025906Y1198118D01*
X1019302Y1198118D01*
D15*
X1019302Y1198118D03*
X806196Y1176020D03*
D16*
X806704Y1176528D02*
X1018032Y1176528D01*
X806704Y1176528D02*
X806196Y1176020D01*
D15*
X1018032Y1176528D03*
X697230Y990346D03*
X717804Y757936D03*
X708152Y926084D03*
X710504Y965406D03*
X725197Y751105D03*
D17*
X678180Y965200D03*
D16*
X678386Y965406D01*
X710504Y965406D01*
D15*
X663448Y1180084D03*
X682244Y986536D03*
X747776Y636016D03*
X762254Y594614D03*
X663956Y683260D03*
X664464Y665988D03*
X779272Y756920D03*
X679704Y236220D03*
X702564Y526288D03*
X794258Y573278D03*
X959358Y1208786D03*
X629412Y1127252D03*
X633476Y1049528D03*
X801624Y996696D03*
D17*
X736600Y525780D03*
X591058Y1175258D03*
X523212Y1026160D03*
X603504Y1044448D03*
X578104Y1051024D03*
X533372Y993168D03*
X839470Y1148080D03*
X631190Y981710D03*
X558292Y1052068D03*
X609092Y458724D03*
D15*
X786892Y698500D03*
D16*
X796544Y698500D01*
X989584Y891540D02*
X989584Y1023388D01*
X989584Y891540D02*
X796544Y698500D01*
X989584Y1023388D02*
X1116308Y1150112D01*
X1235964Y1150112D02*
X1236980Y1151128D01*
X1235964Y1150112D02*
X1116308Y1150112D01*
D15*
X785876Y686816D03*
D16*
X789432Y690372D02*
X830072Y690372D01*
X789432Y690372D02*
X785876Y686816D01*
X1114552Y974852D02*
X1236980Y974852D01*
X1114552Y974852D02*
X830072Y690372D01*
D15*
X684784Y658876D03*
D16*
X872744Y658876D02*
X895604Y636016D01*
X872744Y658876D02*
X684784Y658876D01*
X895604Y636016D02*
X1165860Y636016D01*
X1236980Y707136D02*
X1236980Y798576D01*
X1236980Y707136D02*
X1165860Y636016D01*
X735555Y636270D02*
X718566Y636270D01*
X735555Y636270D02*
X742413Y629412D01*
X850392Y629412D02*
X870204Y609600D01*
X1224280Y609600D02*
X1236980Y622300D01*
X1224280Y609600D02*
X870204Y609600D01*
X850392Y629412D02*
X742413Y629412D01*
D17*
X709704Y647783D03*
D16*
X709704Y645132D02*
X718566Y636270D01*
X709704Y645132D02*
X709704Y647783D01*
D15*
X734568Y643128D03*
D16*
X856488Y643128D02*
X856488Y642620D01*
X856488Y643128D02*
X734568Y643128D01*
D15*
X856488Y642620D03*
X751332Y652272D03*
X849376Y651256D03*
D16*
X849376Y652272D01*
X751332Y652272D01*
D15*
X799084Y664972D03*
X780288Y151892D03*
D16*
X1113028Y92964D02*
X1236472Y92964D01*
X1236980Y93472D01*
X1038860Y151892D02*
X780288Y151892D01*
X1038860Y151892D02*
X1054100Y151892D01*
X1113028Y92964D01*
D15*
X786384Y677672D03*
X840994Y677926D03*
D16*
X786638Y677926D02*
X786384Y677672D01*
X786638Y677926D02*
X840994Y677926D01*
D15*
X754380Y743204D03*
X753364Y1229868D03*
D16*
X520700Y1229868D02*
X482092Y1268476D01*
X460528Y1268476D01*
X449420Y1283120D01*
X520700Y1229868D02*
X753364Y1229868D01*
D17*
X1069848Y-67564D03*
D15*
X786384Y708660D03*
X783336Y1240536D03*
D16*
X783336Y1243138D01*
X528198Y1243138D01*
X488216Y1283120D01*
X469420Y1283120D01*
D15*
X690372Y744728D03*
X685800Y926084D03*
X515112Y925576D03*
D16*
X515620Y926084D02*
X685800Y926084D01*
X515620Y926084D02*
X515112Y925576D01*
D15*
X692912Y755904D03*
X694944Y905256D03*
D16*
X693928Y906272D01*
D15*
X508508Y905764D03*
D16*
X509016Y906272D02*
X693928Y906272D01*
X509016Y906272D02*
X508508Y905764D01*
D15*
X713204Y744249D03*
X691896Y604520D03*
D16*
X691388Y605028D01*
X536448Y605028D02*
X532384Y609092D01*
D15*
X532384Y609092D03*
D16*
X536448Y605028D02*
X691388Y605028D01*
D15*
X746252Y744503D03*
X740156Y610616D03*
D16*
X550672Y610616D02*
X538480Y622808D01*
X538480Y623824D01*
D15*
X538480Y623824D03*
D16*
X550672Y610616D02*
X740156Y610616D01*
D15*
X762508Y745744D03*
X756666Y439166D03*
D16*
X562102Y439166D01*
X559816Y441452D01*
D15*
X559816Y441452D03*
X792480Y734060D03*
X777748Y496824D03*
D16*
X728472Y447548D01*
X570484Y447548D01*
D15*
X570484Y447548D03*
X799592Y719836D03*
X786892Y378460D03*
D16*
X780796Y372364D01*
X780796Y371856D01*
X465256Y371856D01*
X449420Y356020D01*
D15*
X779780Y714248D03*
X764286Y359156D03*
D16*
X472556Y359156D02*
X469420Y356020D01*
X472556Y359156D02*
X641604Y359156D01*
X645160Y355600D01*
X760730Y355600D01*
X764286Y359156D01*
D15*
X732028Y625856D03*
X735330Y157226D03*
D16*
X734790Y156686D01*
X463939Y156686D01*
X450025Y170600D02*
X449420Y170600D01*
X450025Y170600D02*
X463939Y156686D01*
D15*
X718312Y648208D03*
X726186Y184150D03*
D16*
X482970Y184150D01*
X469420Y170600D01*
D15*
X700024Y645160D03*
X715772Y-27432D03*
D16*
X462032Y-27432D02*
X449420Y-14820D01*
X462032Y-27432D02*
X715772Y-27432D01*
D15*
X653796Y657860D03*
X705612Y-13716D03*
D16*
X704508Y-14820D01*
X469420Y-14820D01*
D15*
X701011Y753393D03*
X702056Y910336D03*
D16*
X699516Y912876D01*
X487782Y912876D01*
X476098Y901192D01*
X460508Y901192D01*
X449420Y912280D01*
D15*
X707644Y762791D03*
X698500Y919988D03*
D16*
X697992Y919480D01*
X476620Y919480D01*
X469420Y912280D01*
D17*
X1078484Y321056D03*
X130048Y837692D03*
X130556Y813816D03*
X162560Y811784D03*
X238760Y826008D03*
X197104Y826516D03*
X216408Y826516D03*
X190500Y812292D03*
X335280Y827532D03*
X358648Y826516D03*
X336296Y803656D03*
X359664Y804672D03*
X360172Y779272D03*
X335788Y779272D03*
X130556Y901192D03*
X131064Y877316D03*
X236220Y893064D03*
X218440Y893572D03*
X189484Y902716D03*
X199644Y891032D03*
X161544Y903224D03*
X337820Y894588D03*
X358140Y895096D03*
X336296Y941324D03*
X357632Y941832D03*
X337312Y917448D03*
X357632Y917956D03*
X130048Y652780D03*
X130556Y628904D03*
X162560Y626872D03*
X238760Y641096D03*
X197104Y641604D03*
X216408Y641604D03*
X190500Y627380D03*
X335788Y644144D03*
X359156Y643128D03*
X336804Y620268D03*
X360172Y621284D03*
X360680Y595884D03*
X336296Y595884D03*
X131572Y715264D03*
X132080Y691388D03*
X237236Y707136D03*
X219456Y707644D03*
X190500Y716788D03*
X200660Y705104D03*
X162560Y717296D03*
X337312Y708660D03*
X357632Y709168D03*
X335788Y755396D03*
X357124Y755904D03*
X336804Y731520D03*
X357124Y732028D03*
X131064Y466852D03*
X131572Y442976D03*
X163576Y440944D03*
X239776Y455168D03*
X198120Y455676D03*
X217424Y455676D03*
X191516Y441452D03*
X335788Y458216D03*
X359156Y457200D03*
X336804Y434340D03*
X360172Y435356D03*
X360680Y409956D03*
X336296Y409956D03*
X131064Y529844D03*
X131572Y505968D03*
X236728Y521716D03*
X218948Y522224D03*
X189992Y531368D03*
X200152Y519684D03*
X162052Y531876D03*
X338328Y523240D03*
X358648Y523748D03*
X336804Y569976D03*
X358140Y570484D03*
X337820Y546100D03*
X358140Y546608D03*
X130048Y281432D03*
X130556Y257556D03*
X162560Y255524D03*
X238760Y269748D03*
X197104Y270256D03*
X216408Y270256D03*
X190500Y256032D03*
X335788Y271780D03*
X359156Y270764D03*
X336804Y247904D03*
X360172Y248920D03*
X360680Y223520D03*
X336296Y223520D03*
X130556Y344424D03*
X131064Y320548D03*
X236220Y336296D03*
X218440Y336804D03*
X189484Y345948D03*
X199644Y334264D03*
X161544Y346456D03*
X338328Y339344D03*
X358648Y339852D03*
X336804Y386080D03*
X358140Y386588D03*
X337820Y362204D03*
X358140Y362712D03*
X130048Y92964D03*
X130556Y69088D03*
X162560Y67056D03*
X238760Y81280D03*
X197104Y81788D03*
X216408Y81788D03*
X190500Y67564D03*
X334772Y86868D03*
X358140Y85852D03*
X335788Y62992D03*
X359156Y64008D03*
X359664Y38608D03*
X335280Y38608D03*
X130048Y159512D03*
X130556Y135636D03*
X235712Y151384D03*
X217932Y151892D03*
X188976Y161036D03*
X199136Y149352D03*
X161036Y161544D03*
X337820Y154432D03*
X358140Y154940D03*
X336296Y201168D03*
X357632Y201676D03*
X337312Y177292D03*
X357632Y177800D03*
X132080Y-87376D03*
X132588Y-111252D03*
X164592Y-113284D03*
X240792Y-99060D03*
X199136Y-98552D03*
X218440Y-98552D03*
X192532Y-112776D03*
X335788Y-99568D03*
X359156Y-100584D03*
X336804Y-123444D03*
X360172Y-122428D03*
X360680Y-147828D03*
X336296Y-147828D03*
X131064Y-25908D03*
X131572Y-49784D03*
X236728Y-34036D03*
X218948Y-33528D03*
X189992Y-24384D03*
X200152Y-36068D03*
X162052Y-23876D03*
X337820Y-35560D03*
X358140Y-35052D03*
X336296Y11176D03*
X357632Y11684D03*
X337312Y-12700D03*
X357632Y-12192D03*
X131064Y1208532D03*
X131572Y1184656D03*
X163576Y1182624D03*
X239776Y1196848D03*
X198120Y1197356D03*
X217424Y1197356D03*
X191516Y1183132D03*
X335788Y1198880D03*
X359156Y1197864D03*
X336804Y1175004D03*
X360172Y1176020D03*
X360680Y1150620D03*
X336296Y1150620D03*
X130556Y1271524D03*
X131064Y1247648D03*
X236220Y1263396D03*
X218440Y1263904D03*
X189484Y1273048D03*
X199644Y1261364D03*
X161544Y1273556D03*
X334264Y1265428D03*
X354584Y1265936D03*
X332740Y1312164D03*
X354076Y1312672D03*
X333756Y1288288D03*
X354076Y1288796D03*
X130556Y1023620D03*
X131064Y999744D03*
X163068Y997712D03*
X239268Y1011936D03*
X197612Y1012444D03*
X216916Y1012444D03*
X191008Y998220D03*
X334772Y1012952D03*
X358140Y1011936D03*
X335788Y989076D03*
X359156Y990092D03*
X359664Y964692D03*
X335280Y964692D03*
X132080Y1086104D03*
X132588Y1062228D03*
X237236Y1080516D03*
X219964Y1078484D03*
X191008Y1087628D03*
X201168Y1075944D03*
X163068Y1088136D03*
X337312Y1082040D03*
X356616Y1081532D03*
X335280Y1126236D03*
X356616Y1126744D03*
X336296Y1102360D03*
X356616Y1102868D03*
X1024636Y-90424D03*
X1029716Y-129540D03*
X1031240Y298704D03*
X1038352Y258064D03*
X1039876Y729488D03*
X1048512Y692404D03*
X393700Y1244092D03*
X410464Y1244092D03*
X482092Y1244092D03*
X463804Y1244092D03*
X446532Y1243584D03*
X428752Y1244092D03*
X482600Y1215136D03*
X463804Y1215136D03*
X446532Y1215136D03*
X428752Y1215136D03*
X482092Y1229360D03*
X393192Y1228852D03*
X463296Y1228852D03*
X446532Y1228852D03*
X428752Y1228852D03*
X393192Y1058672D03*
X409956Y1058672D03*
X481584Y1058672D03*
X463296Y1058672D03*
X446024Y1058164D03*
X428244Y1058672D03*
X482092Y1029716D03*
X463296Y1029716D03*
X446024Y1029716D03*
X428244Y1029716D03*
X481584Y1043940D03*
X392684Y1043432D03*
X462788Y1043432D03*
X446024Y1043432D03*
X428244Y1043432D03*
X393700Y873760D03*
X410464Y873760D03*
X482092Y873760D03*
X463804Y873760D03*
X446532Y873252D03*
X428752Y873760D03*
X482600Y844804D03*
X463804Y844804D03*
X446532Y844804D03*
X428752Y844804D03*
X482092Y859028D03*
X393192Y858520D03*
X463296Y858520D03*
X446532Y858520D03*
X428752Y858520D03*
X393700Y687832D03*
X410464Y687832D03*
X482092Y687832D03*
X463804Y687832D03*
X446532Y687324D03*
X428752Y687832D03*
X482600Y658876D03*
X463804Y658876D03*
X446532Y658876D03*
X428752Y658876D03*
X482092Y673100D03*
X393192Y672592D03*
X463296Y672592D03*
X446532Y672592D03*
X428752Y672592D03*
X393192Y501396D03*
X409956Y501396D03*
X481584Y501396D03*
X463296Y501396D03*
X446024Y500888D03*
X428244Y501396D03*
X482092Y472440D03*
X463296Y472440D03*
X446024Y472440D03*
X428244Y472440D03*
X481584Y486664D03*
X392684Y486156D03*
X462788Y486156D03*
X446024Y486156D03*
X428244Y486156D03*
X393700Y316484D03*
X410464Y316484D03*
X482092Y316484D03*
X463804Y316484D03*
X446532Y315976D03*
X428752Y316484D03*
X482600Y287528D03*
X463804Y287528D03*
X446532Y287528D03*
X428752Y287528D03*
X482092Y301752D03*
X393192Y301244D03*
X463296Y301244D03*
X446532Y301244D03*
X428752Y301244D03*
X393700Y131064D03*
X410464Y131064D03*
X482092Y131064D03*
X463804Y131064D03*
X446532Y130556D03*
X428752Y131064D03*
X482600Y102108D03*
X463804Y102108D03*
X446532Y102108D03*
X428752Y102108D03*
X482092Y116332D03*
X393192Y115824D03*
X463296Y115824D03*
X446532Y115824D03*
X428752Y115824D03*
X391668Y-53848D03*
X408432Y-53848D03*
X480060Y-53848D03*
X461772Y-53848D03*
X444500Y-54356D03*
X426720Y-53848D03*
X480568Y-82804D03*
X461772Y-82804D03*
X444500Y-82804D03*
X426720Y-82804D03*
X480060Y-68580D03*
X391160Y-69088D03*
X461264Y-69088D03*
X444500Y-69088D03*
X426720Y-69088D03*
X1036320Y-152400D03*
X1056640Y-152400D03*
X1099820Y-152400D03*
X1076960Y-152400D03*
X1099820Y-165100D03*
X1076960Y-165100D03*
X1056640Y-165100D03*
X1036320Y-165100D03*
X1036320Y-177800D03*
X1099820Y-177800D03*
X1076960Y-177800D03*
X1056640Y-177800D03*
X1049020Y670560D03*
X1069340Y670560D03*
X1112520Y670560D03*
X1089660Y670560D03*
X1112520Y657860D03*
X1089660Y657860D03*
X1069340Y657860D03*
X1049020Y657860D03*
X1049020Y645160D03*
X1112520Y645160D03*
X1089660Y645160D03*
X1069340Y645160D03*
X1041400Y236220D03*
X1061720Y236220D03*
X1104900Y236220D03*
X1082040Y236220D03*
X1104900Y223520D03*
X1082040Y223520D03*
X1061720Y223520D03*
X1041400Y223520D03*
X1041400Y210820D03*
X1104900Y210820D03*
X1082040Y210820D03*
X1061720Y210820D03*
D18*
X1020572Y37084D03*
X1046226Y447294D03*
X1032256Y868172D03*
D17*
X1006856Y745236D03*
X1078992Y741680D03*
X1042416Y747776D03*
X1086612Y755396D03*
X997204Y312928D03*
X1070356Y309372D03*
X1033170Y315468D03*
X990092Y-75692D03*
X1062228Y-78740D03*
X1025144Y-73152D03*
D15*
X733044Y593852D03*
X731379Y652639D03*
X743340Y766572D03*
X646176Y380238D03*
X680720Y707136D03*
X640080Y702056D03*
D16*
X645160Y707136D01*
X680720Y707136D01*
D15*
X675640Y725424D03*
X673608Y756412D03*
X646176Y725424D03*
D16*
X675640Y725424D01*
D15*
X691896Y764540D03*
X663194Y626618D03*
X680771Y715496D03*
X672846Y764794D03*
D16*
X691642Y764794D01*
X691896Y764540D01*
D15*
X657127Y717013D03*
D17*
X695960Y1141984D03*
X616712Y1043940D03*
X686308Y1140968D03*
X573532Y1072642D03*
X716816Y1148588D03*
X632460Y993648D03*
X707286Y1179576D03*
X569468Y983488D03*
M02*
