G04 EAGLE Gerber RS-274X export*
G75*
%MOMM*%
%FSLAX34Y34*%
%LPD*%
%INSilkscreen Bottom*%
%IPPOS*%
%AMOC8*
5,1,8,0,0,1.08239X$1,22.5*%
G01*
%ADD10C,0.127000*%


D10*
X1061668Y340979D02*
X1061668Y347837D01*
X1059763Y347837D01*
X1059678Y347835D01*
X1059592Y347829D01*
X1059507Y347820D01*
X1059423Y347806D01*
X1059339Y347789D01*
X1059256Y347768D01*
X1059174Y347744D01*
X1059094Y347716D01*
X1059014Y347684D01*
X1058936Y347648D01*
X1058860Y347610D01*
X1058786Y347567D01*
X1058714Y347522D01*
X1058643Y347473D01*
X1058575Y347421D01*
X1058510Y347367D01*
X1058447Y347309D01*
X1058386Y347248D01*
X1058328Y347185D01*
X1058274Y347120D01*
X1058222Y347052D01*
X1058173Y346981D01*
X1058128Y346909D01*
X1058085Y346835D01*
X1058047Y346759D01*
X1058011Y346681D01*
X1057979Y346601D01*
X1057951Y346521D01*
X1057927Y346439D01*
X1057906Y346356D01*
X1057889Y346272D01*
X1057875Y346188D01*
X1057866Y346103D01*
X1057860Y346017D01*
X1057858Y345932D01*
X1057860Y345847D01*
X1057866Y345761D01*
X1057875Y345676D01*
X1057889Y345592D01*
X1057906Y345508D01*
X1057927Y345425D01*
X1057951Y345343D01*
X1057979Y345263D01*
X1058011Y345183D01*
X1058047Y345105D01*
X1058085Y345029D01*
X1058128Y344955D01*
X1058173Y344883D01*
X1058222Y344812D01*
X1058274Y344744D01*
X1058328Y344679D01*
X1058386Y344616D01*
X1058447Y344555D01*
X1058510Y344497D01*
X1058575Y344443D01*
X1058643Y344391D01*
X1058714Y344342D01*
X1058786Y344297D01*
X1058860Y344254D01*
X1058936Y344216D01*
X1059014Y344180D01*
X1059094Y344148D01*
X1059174Y344120D01*
X1059256Y344096D01*
X1059339Y344075D01*
X1059423Y344058D01*
X1059507Y344044D01*
X1059592Y344035D01*
X1059678Y344029D01*
X1059763Y344027D01*
X1061668Y344027D01*
X1059382Y344027D02*
X1057858Y340979D01*
X1054422Y346313D02*
X1052517Y347837D01*
X1052517Y340979D01*
X1054422Y340979D02*
X1050612Y340979D01*
X1047107Y342503D02*
X1045583Y347837D01*
X1047107Y342503D02*
X1043297Y342503D01*
X1044440Y344027D02*
X1044440Y340979D01*
X1061187Y307737D02*
X1061187Y300879D01*
X1061187Y307737D02*
X1059282Y307737D01*
X1059197Y307735D01*
X1059111Y307729D01*
X1059026Y307720D01*
X1058942Y307706D01*
X1058858Y307689D01*
X1058775Y307668D01*
X1058693Y307644D01*
X1058613Y307616D01*
X1058533Y307584D01*
X1058455Y307548D01*
X1058379Y307510D01*
X1058305Y307467D01*
X1058233Y307422D01*
X1058162Y307373D01*
X1058094Y307321D01*
X1058029Y307267D01*
X1057966Y307209D01*
X1057905Y307148D01*
X1057847Y307085D01*
X1057793Y307020D01*
X1057741Y306952D01*
X1057692Y306881D01*
X1057647Y306809D01*
X1057604Y306735D01*
X1057566Y306659D01*
X1057530Y306581D01*
X1057498Y306501D01*
X1057470Y306421D01*
X1057446Y306339D01*
X1057425Y306256D01*
X1057408Y306172D01*
X1057394Y306088D01*
X1057385Y306003D01*
X1057379Y305917D01*
X1057377Y305832D01*
X1057379Y305747D01*
X1057385Y305661D01*
X1057394Y305576D01*
X1057408Y305492D01*
X1057425Y305408D01*
X1057446Y305325D01*
X1057470Y305243D01*
X1057498Y305163D01*
X1057530Y305083D01*
X1057566Y305005D01*
X1057604Y304929D01*
X1057647Y304855D01*
X1057692Y304783D01*
X1057741Y304712D01*
X1057793Y304644D01*
X1057847Y304579D01*
X1057905Y304516D01*
X1057966Y304455D01*
X1058029Y304397D01*
X1058094Y304343D01*
X1058162Y304291D01*
X1058233Y304242D01*
X1058305Y304197D01*
X1058379Y304154D01*
X1058455Y304116D01*
X1058533Y304080D01*
X1058613Y304048D01*
X1058693Y304020D01*
X1058775Y303996D01*
X1058858Y303975D01*
X1058942Y303958D01*
X1059026Y303944D01*
X1059111Y303935D01*
X1059197Y303929D01*
X1059282Y303927D01*
X1061187Y303927D01*
X1058901Y303927D02*
X1057377Y300879D01*
X1053941Y306213D02*
X1052036Y307737D01*
X1052036Y300879D01*
X1053941Y300879D02*
X1050131Y300879D01*
X1046626Y302784D02*
X1046624Y302869D01*
X1046618Y302955D01*
X1046609Y303040D01*
X1046595Y303124D01*
X1046578Y303208D01*
X1046557Y303291D01*
X1046533Y303373D01*
X1046505Y303453D01*
X1046473Y303533D01*
X1046437Y303611D01*
X1046399Y303687D01*
X1046356Y303761D01*
X1046311Y303833D01*
X1046262Y303904D01*
X1046210Y303972D01*
X1046156Y304037D01*
X1046098Y304100D01*
X1046037Y304161D01*
X1045974Y304219D01*
X1045909Y304273D01*
X1045841Y304325D01*
X1045770Y304374D01*
X1045698Y304419D01*
X1045624Y304462D01*
X1045548Y304500D01*
X1045470Y304536D01*
X1045390Y304568D01*
X1045310Y304596D01*
X1045228Y304620D01*
X1045145Y304641D01*
X1045061Y304658D01*
X1044977Y304672D01*
X1044892Y304681D01*
X1044806Y304687D01*
X1044721Y304689D01*
X1044636Y304687D01*
X1044550Y304681D01*
X1044465Y304672D01*
X1044381Y304658D01*
X1044297Y304641D01*
X1044214Y304620D01*
X1044132Y304596D01*
X1044052Y304568D01*
X1043972Y304536D01*
X1043894Y304500D01*
X1043818Y304462D01*
X1043744Y304419D01*
X1043672Y304374D01*
X1043601Y304325D01*
X1043533Y304273D01*
X1043468Y304219D01*
X1043405Y304161D01*
X1043344Y304100D01*
X1043286Y304037D01*
X1043232Y303972D01*
X1043180Y303904D01*
X1043131Y303833D01*
X1043086Y303761D01*
X1043043Y303687D01*
X1043005Y303611D01*
X1042969Y303533D01*
X1042937Y303453D01*
X1042909Y303373D01*
X1042885Y303291D01*
X1042864Y303208D01*
X1042847Y303124D01*
X1042833Y303040D01*
X1042824Y302955D01*
X1042818Y302869D01*
X1042816Y302784D01*
X1042818Y302699D01*
X1042824Y302613D01*
X1042833Y302528D01*
X1042847Y302444D01*
X1042864Y302360D01*
X1042885Y302277D01*
X1042909Y302195D01*
X1042937Y302115D01*
X1042969Y302035D01*
X1043005Y301957D01*
X1043043Y301881D01*
X1043086Y301807D01*
X1043131Y301735D01*
X1043180Y301664D01*
X1043232Y301596D01*
X1043286Y301531D01*
X1043344Y301468D01*
X1043405Y301407D01*
X1043468Y301349D01*
X1043533Y301295D01*
X1043601Y301243D01*
X1043672Y301194D01*
X1043744Y301149D01*
X1043818Y301106D01*
X1043894Y301068D01*
X1043972Y301032D01*
X1044052Y301000D01*
X1044132Y300972D01*
X1044214Y300948D01*
X1044297Y300927D01*
X1044381Y300910D01*
X1044465Y300896D01*
X1044550Y300887D01*
X1044636Y300881D01*
X1044721Y300879D01*
X1044806Y300881D01*
X1044892Y300887D01*
X1044977Y300896D01*
X1045061Y300910D01*
X1045145Y300927D01*
X1045228Y300948D01*
X1045310Y300972D01*
X1045390Y301000D01*
X1045470Y301032D01*
X1045548Y301068D01*
X1045624Y301106D01*
X1045698Y301149D01*
X1045770Y301194D01*
X1045841Y301243D01*
X1045909Y301295D01*
X1045974Y301349D01*
X1046037Y301407D01*
X1046098Y301468D01*
X1046156Y301531D01*
X1046210Y301596D01*
X1046262Y301664D01*
X1046311Y301735D01*
X1046356Y301807D01*
X1046399Y301881D01*
X1046437Y301957D01*
X1046473Y302035D01*
X1046505Y302115D01*
X1046533Y302195D01*
X1046557Y302277D01*
X1046578Y302360D01*
X1046595Y302444D01*
X1046609Y302528D01*
X1046618Y302613D01*
X1046624Y302699D01*
X1046626Y302784D01*
X1046245Y306213D02*
X1046243Y306290D01*
X1046237Y306367D01*
X1046227Y306444D01*
X1046214Y306520D01*
X1046196Y306595D01*
X1046175Y306669D01*
X1046150Y306742D01*
X1046121Y306814D01*
X1046089Y306884D01*
X1046054Y306953D01*
X1046014Y307019D01*
X1045972Y307084D01*
X1045926Y307146D01*
X1045877Y307206D01*
X1045826Y307263D01*
X1045771Y307318D01*
X1045714Y307369D01*
X1045654Y307418D01*
X1045592Y307464D01*
X1045527Y307506D01*
X1045461Y307546D01*
X1045392Y307581D01*
X1045322Y307613D01*
X1045250Y307642D01*
X1045177Y307667D01*
X1045103Y307688D01*
X1045028Y307706D01*
X1044952Y307719D01*
X1044875Y307729D01*
X1044798Y307735D01*
X1044721Y307737D01*
X1044644Y307735D01*
X1044567Y307729D01*
X1044490Y307719D01*
X1044414Y307706D01*
X1044339Y307688D01*
X1044265Y307667D01*
X1044192Y307642D01*
X1044120Y307613D01*
X1044050Y307581D01*
X1043981Y307546D01*
X1043915Y307506D01*
X1043850Y307464D01*
X1043788Y307418D01*
X1043728Y307369D01*
X1043671Y307318D01*
X1043616Y307263D01*
X1043565Y307206D01*
X1043516Y307146D01*
X1043470Y307084D01*
X1043428Y307019D01*
X1043388Y306953D01*
X1043353Y306884D01*
X1043321Y306814D01*
X1043292Y306742D01*
X1043267Y306669D01*
X1043246Y306595D01*
X1043228Y306520D01*
X1043215Y306444D01*
X1043205Y306367D01*
X1043199Y306290D01*
X1043197Y306213D01*
X1043199Y306136D01*
X1043205Y306059D01*
X1043215Y305982D01*
X1043228Y305906D01*
X1043246Y305831D01*
X1043267Y305757D01*
X1043292Y305684D01*
X1043321Y305612D01*
X1043353Y305542D01*
X1043388Y305473D01*
X1043428Y305407D01*
X1043470Y305342D01*
X1043516Y305280D01*
X1043565Y305220D01*
X1043616Y305163D01*
X1043671Y305108D01*
X1043728Y305057D01*
X1043788Y305008D01*
X1043850Y304962D01*
X1043915Y304920D01*
X1043981Y304880D01*
X1044050Y304845D01*
X1044120Y304813D01*
X1044192Y304784D01*
X1044265Y304759D01*
X1044339Y304738D01*
X1044414Y304720D01*
X1044490Y304707D01*
X1044567Y304697D01*
X1044644Y304691D01*
X1044721Y304689D01*
X1044798Y304691D01*
X1044875Y304697D01*
X1044952Y304707D01*
X1045028Y304720D01*
X1045103Y304738D01*
X1045177Y304759D01*
X1045250Y304784D01*
X1045322Y304813D01*
X1045392Y304845D01*
X1045461Y304880D01*
X1045527Y304920D01*
X1045592Y304962D01*
X1045654Y305008D01*
X1045714Y305057D01*
X1045771Y305108D01*
X1045826Y305163D01*
X1045877Y305220D01*
X1045926Y305280D01*
X1045972Y305342D01*
X1046014Y305407D01*
X1046054Y305473D01*
X1046089Y305542D01*
X1046121Y305612D01*
X1046150Y305684D01*
X1046175Y305757D01*
X1046196Y305831D01*
X1046214Y305906D01*
X1046227Y305982D01*
X1046237Y306059D01*
X1046243Y306136D01*
X1046245Y306213D01*
X1050652Y-42241D02*
X1050652Y-49099D01*
X1050652Y-42241D02*
X1048747Y-42241D01*
X1048662Y-42243D01*
X1048576Y-42249D01*
X1048491Y-42258D01*
X1048407Y-42272D01*
X1048323Y-42289D01*
X1048240Y-42310D01*
X1048158Y-42334D01*
X1048078Y-42362D01*
X1047998Y-42394D01*
X1047920Y-42430D01*
X1047844Y-42468D01*
X1047770Y-42511D01*
X1047698Y-42556D01*
X1047627Y-42605D01*
X1047559Y-42657D01*
X1047494Y-42711D01*
X1047431Y-42769D01*
X1047370Y-42830D01*
X1047312Y-42893D01*
X1047258Y-42958D01*
X1047206Y-43026D01*
X1047157Y-43097D01*
X1047112Y-43169D01*
X1047069Y-43243D01*
X1047031Y-43319D01*
X1046995Y-43397D01*
X1046963Y-43477D01*
X1046935Y-43557D01*
X1046911Y-43639D01*
X1046890Y-43722D01*
X1046873Y-43806D01*
X1046859Y-43890D01*
X1046850Y-43975D01*
X1046844Y-44061D01*
X1046842Y-44146D01*
X1046844Y-44231D01*
X1046850Y-44317D01*
X1046859Y-44402D01*
X1046873Y-44486D01*
X1046890Y-44570D01*
X1046911Y-44653D01*
X1046935Y-44735D01*
X1046963Y-44815D01*
X1046995Y-44895D01*
X1047031Y-44973D01*
X1047069Y-45049D01*
X1047112Y-45123D01*
X1047157Y-45195D01*
X1047206Y-45266D01*
X1047258Y-45334D01*
X1047312Y-45399D01*
X1047370Y-45462D01*
X1047431Y-45523D01*
X1047494Y-45581D01*
X1047559Y-45635D01*
X1047627Y-45687D01*
X1047698Y-45736D01*
X1047770Y-45781D01*
X1047844Y-45824D01*
X1047920Y-45862D01*
X1047998Y-45898D01*
X1048078Y-45930D01*
X1048158Y-45958D01*
X1048240Y-45982D01*
X1048323Y-46003D01*
X1048407Y-46020D01*
X1048491Y-46034D01*
X1048576Y-46043D01*
X1048662Y-46049D01*
X1048747Y-46051D01*
X1050652Y-46051D01*
X1048366Y-46051D02*
X1046842Y-49099D01*
X1043406Y-43765D02*
X1041501Y-42241D01*
X1041501Y-49099D01*
X1043406Y-49099D02*
X1039596Y-49099D01*
X1034567Y-46051D02*
X1032281Y-46051D01*
X1034567Y-46051D02*
X1034644Y-46049D01*
X1034721Y-46043D01*
X1034798Y-46033D01*
X1034874Y-46020D01*
X1034949Y-46002D01*
X1035023Y-45981D01*
X1035096Y-45956D01*
X1035168Y-45927D01*
X1035238Y-45895D01*
X1035307Y-45860D01*
X1035373Y-45820D01*
X1035438Y-45778D01*
X1035500Y-45732D01*
X1035560Y-45683D01*
X1035617Y-45632D01*
X1035672Y-45577D01*
X1035723Y-45520D01*
X1035772Y-45460D01*
X1035818Y-45398D01*
X1035860Y-45333D01*
X1035900Y-45267D01*
X1035935Y-45198D01*
X1035967Y-45128D01*
X1035996Y-45056D01*
X1036021Y-44983D01*
X1036042Y-44909D01*
X1036060Y-44834D01*
X1036073Y-44758D01*
X1036083Y-44681D01*
X1036089Y-44604D01*
X1036091Y-44527D01*
X1036091Y-44146D01*
X1036089Y-44061D01*
X1036083Y-43975D01*
X1036074Y-43890D01*
X1036060Y-43806D01*
X1036043Y-43722D01*
X1036022Y-43639D01*
X1035998Y-43557D01*
X1035970Y-43477D01*
X1035938Y-43397D01*
X1035902Y-43319D01*
X1035864Y-43243D01*
X1035821Y-43169D01*
X1035776Y-43097D01*
X1035727Y-43026D01*
X1035675Y-42958D01*
X1035621Y-42893D01*
X1035563Y-42830D01*
X1035502Y-42769D01*
X1035439Y-42711D01*
X1035374Y-42657D01*
X1035306Y-42605D01*
X1035235Y-42556D01*
X1035163Y-42511D01*
X1035089Y-42468D01*
X1035013Y-42430D01*
X1034935Y-42394D01*
X1034855Y-42362D01*
X1034775Y-42334D01*
X1034693Y-42310D01*
X1034610Y-42289D01*
X1034526Y-42272D01*
X1034442Y-42258D01*
X1034357Y-42249D01*
X1034271Y-42243D01*
X1034186Y-42241D01*
X1034101Y-42243D01*
X1034015Y-42249D01*
X1033930Y-42258D01*
X1033846Y-42272D01*
X1033762Y-42289D01*
X1033679Y-42310D01*
X1033597Y-42334D01*
X1033517Y-42362D01*
X1033437Y-42394D01*
X1033359Y-42430D01*
X1033283Y-42468D01*
X1033209Y-42511D01*
X1033137Y-42556D01*
X1033066Y-42605D01*
X1032998Y-42657D01*
X1032933Y-42711D01*
X1032870Y-42769D01*
X1032809Y-42830D01*
X1032751Y-42893D01*
X1032697Y-42958D01*
X1032645Y-43026D01*
X1032596Y-43097D01*
X1032551Y-43169D01*
X1032508Y-43243D01*
X1032470Y-43319D01*
X1032434Y-43397D01*
X1032402Y-43477D01*
X1032374Y-43557D01*
X1032350Y-43639D01*
X1032329Y-43722D01*
X1032312Y-43806D01*
X1032298Y-43890D01*
X1032289Y-43975D01*
X1032283Y-44061D01*
X1032281Y-44146D01*
X1032281Y-46051D01*
X1032283Y-46160D01*
X1032289Y-46268D01*
X1032298Y-46377D01*
X1032312Y-46485D01*
X1032329Y-46592D01*
X1032351Y-46699D01*
X1032376Y-46805D01*
X1032404Y-46910D01*
X1032437Y-47014D01*
X1032473Y-47116D01*
X1032513Y-47217D01*
X1032556Y-47317D01*
X1032603Y-47415D01*
X1032654Y-47512D01*
X1032708Y-47606D01*
X1032765Y-47699D01*
X1032825Y-47789D01*
X1032889Y-47878D01*
X1032956Y-47964D01*
X1033025Y-48047D01*
X1033098Y-48128D01*
X1033174Y-48206D01*
X1033252Y-48282D01*
X1033333Y-48355D01*
X1033416Y-48424D01*
X1033502Y-48491D01*
X1033591Y-48555D01*
X1033681Y-48615D01*
X1033774Y-48672D01*
X1033868Y-48726D01*
X1033965Y-48777D01*
X1034063Y-48824D01*
X1034163Y-48867D01*
X1034264Y-48907D01*
X1034366Y-48943D01*
X1034470Y-48976D01*
X1034575Y-49004D01*
X1034681Y-49029D01*
X1034788Y-49051D01*
X1034895Y-49068D01*
X1035003Y-49082D01*
X1035112Y-49091D01*
X1035220Y-49097D01*
X1035329Y-49099D01*
X1050265Y-80949D02*
X1050265Y-87807D01*
X1050265Y-80949D02*
X1048360Y-80949D01*
X1048275Y-80951D01*
X1048189Y-80957D01*
X1048104Y-80966D01*
X1048020Y-80980D01*
X1047936Y-80997D01*
X1047853Y-81018D01*
X1047771Y-81042D01*
X1047691Y-81070D01*
X1047611Y-81102D01*
X1047533Y-81138D01*
X1047457Y-81176D01*
X1047383Y-81219D01*
X1047311Y-81264D01*
X1047240Y-81313D01*
X1047172Y-81365D01*
X1047107Y-81419D01*
X1047044Y-81477D01*
X1046983Y-81538D01*
X1046925Y-81601D01*
X1046871Y-81666D01*
X1046819Y-81734D01*
X1046770Y-81805D01*
X1046725Y-81877D01*
X1046682Y-81951D01*
X1046644Y-82027D01*
X1046608Y-82105D01*
X1046576Y-82185D01*
X1046548Y-82265D01*
X1046524Y-82347D01*
X1046503Y-82430D01*
X1046486Y-82514D01*
X1046472Y-82598D01*
X1046463Y-82683D01*
X1046457Y-82769D01*
X1046455Y-82854D01*
X1046457Y-82939D01*
X1046463Y-83025D01*
X1046472Y-83110D01*
X1046486Y-83194D01*
X1046503Y-83278D01*
X1046524Y-83361D01*
X1046548Y-83443D01*
X1046576Y-83523D01*
X1046608Y-83603D01*
X1046644Y-83681D01*
X1046682Y-83757D01*
X1046725Y-83831D01*
X1046770Y-83903D01*
X1046819Y-83974D01*
X1046871Y-84042D01*
X1046925Y-84107D01*
X1046983Y-84170D01*
X1047044Y-84231D01*
X1047107Y-84289D01*
X1047172Y-84343D01*
X1047240Y-84395D01*
X1047311Y-84444D01*
X1047383Y-84489D01*
X1047457Y-84532D01*
X1047533Y-84570D01*
X1047611Y-84606D01*
X1047691Y-84638D01*
X1047771Y-84666D01*
X1047853Y-84690D01*
X1047936Y-84711D01*
X1048020Y-84728D01*
X1048104Y-84742D01*
X1048189Y-84751D01*
X1048275Y-84757D01*
X1048360Y-84759D01*
X1050265Y-84759D01*
X1047979Y-84759D02*
X1046455Y-87807D01*
X1040924Y-80949D02*
X1040842Y-80951D01*
X1040761Y-80957D01*
X1040680Y-80966D01*
X1040599Y-80980D01*
X1040520Y-80997D01*
X1040441Y-81018D01*
X1040363Y-81043D01*
X1040287Y-81072D01*
X1040212Y-81104D01*
X1040138Y-81140D01*
X1040067Y-81179D01*
X1039997Y-81221D01*
X1039929Y-81267D01*
X1039864Y-81316D01*
X1039801Y-81368D01*
X1039741Y-81423D01*
X1039683Y-81481D01*
X1039628Y-81541D01*
X1039576Y-81604D01*
X1039527Y-81669D01*
X1039481Y-81737D01*
X1039439Y-81807D01*
X1039400Y-81878D01*
X1039364Y-81952D01*
X1039332Y-82027D01*
X1039303Y-82103D01*
X1039278Y-82181D01*
X1039257Y-82260D01*
X1039240Y-82339D01*
X1039226Y-82420D01*
X1039217Y-82501D01*
X1039211Y-82582D01*
X1039209Y-82664D01*
X1040924Y-80949D02*
X1041016Y-80951D01*
X1041108Y-80957D01*
X1041200Y-80966D01*
X1041292Y-80980D01*
X1041382Y-80997D01*
X1041472Y-81018D01*
X1041561Y-81043D01*
X1041649Y-81072D01*
X1041736Y-81104D01*
X1041821Y-81140D01*
X1041904Y-81179D01*
X1041986Y-81222D01*
X1042066Y-81268D01*
X1042144Y-81318D01*
X1042220Y-81370D01*
X1042293Y-81426D01*
X1042364Y-81485D01*
X1042433Y-81547D01*
X1042499Y-81612D01*
X1042562Y-81679D01*
X1042622Y-81749D01*
X1042680Y-81821D01*
X1042734Y-81896D01*
X1042785Y-81973D01*
X1042833Y-82052D01*
X1042877Y-82133D01*
X1042918Y-82216D01*
X1042956Y-82300D01*
X1042990Y-82386D01*
X1043020Y-82473D01*
X1039781Y-83998D02*
X1039722Y-83939D01*
X1039666Y-83878D01*
X1039613Y-83815D01*
X1039562Y-83749D01*
X1039515Y-83681D01*
X1039471Y-83611D01*
X1039430Y-83539D01*
X1039392Y-83465D01*
X1039358Y-83390D01*
X1039327Y-83313D01*
X1039300Y-83235D01*
X1039276Y-83155D01*
X1039255Y-83075D01*
X1039239Y-82994D01*
X1039226Y-82912D01*
X1039216Y-82830D01*
X1039211Y-82747D01*
X1039209Y-82664D01*
X1039781Y-83997D02*
X1043019Y-87807D01*
X1039209Y-87807D01*
X1035704Y-87807D02*
X1033799Y-87807D01*
X1033714Y-87805D01*
X1033628Y-87799D01*
X1033543Y-87790D01*
X1033459Y-87776D01*
X1033375Y-87759D01*
X1033292Y-87738D01*
X1033210Y-87714D01*
X1033130Y-87686D01*
X1033050Y-87654D01*
X1032972Y-87618D01*
X1032896Y-87580D01*
X1032822Y-87537D01*
X1032750Y-87492D01*
X1032679Y-87443D01*
X1032611Y-87391D01*
X1032546Y-87337D01*
X1032483Y-87279D01*
X1032422Y-87218D01*
X1032364Y-87155D01*
X1032310Y-87090D01*
X1032258Y-87022D01*
X1032209Y-86951D01*
X1032164Y-86879D01*
X1032121Y-86805D01*
X1032083Y-86729D01*
X1032047Y-86651D01*
X1032015Y-86571D01*
X1031987Y-86491D01*
X1031963Y-86409D01*
X1031942Y-86326D01*
X1031925Y-86242D01*
X1031911Y-86158D01*
X1031902Y-86073D01*
X1031896Y-85987D01*
X1031894Y-85902D01*
X1031896Y-85817D01*
X1031902Y-85731D01*
X1031911Y-85646D01*
X1031925Y-85562D01*
X1031942Y-85478D01*
X1031963Y-85395D01*
X1031987Y-85313D01*
X1032015Y-85233D01*
X1032047Y-85153D01*
X1032083Y-85075D01*
X1032121Y-84999D01*
X1032164Y-84925D01*
X1032209Y-84853D01*
X1032258Y-84782D01*
X1032310Y-84714D01*
X1032364Y-84649D01*
X1032422Y-84586D01*
X1032483Y-84525D01*
X1032546Y-84467D01*
X1032611Y-84413D01*
X1032679Y-84361D01*
X1032750Y-84312D01*
X1032822Y-84267D01*
X1032896Y-84224D01*
X1032972Y-84186D01*
X1033050Y-84150D01*
X1033130Y-84118D01*
X1033210Y-84090D01*
X1033292Y-84066D01*
X1033375Y-84045D01*
X1033459Y-84028D01*
X1033543Y-84014D01*
X1033628Y-84005D01*
X1033714Y-83999D01*
X1033799Y-83997D01*
X1033418Y-80949D02*
X1035704Y-80949D01*
X1033418Y-80949D02*
X1033341Y-80951D01*
X1033264Y-80957D01*
X1033187Y-80967D01*
X1033111Y-80980D01*
X1033036Y-80998D01*
X1032962Y-81019D01*
X1032889Y-81044D01*
X1032817Y-81073D01*
X1032747Y-81105D01*
X1032678Y-81140D01*
X1032612Y-81180D01*
X1032547Y-81222D01*
X1032485Y-81268D01*
X1032425Y-81317D01*
X1032368Y-81368D01*
X1032313Y-81423D01*
X1032262Y-81480D01*
X1032213Y-81540D01*
X1032167Y-81602D01*
X1032125Y-81667D01*
X1032085Y-81733D01*
X1032050Y-81802D01*
X1032018Y-81872D01*
X1031989Y-81944D01*
X1031964Y-82017D01*
X1031943Y-82091D01*
X1031925Y-82166D01*
X1031912Y-82242D01*
X1031902Y-82319D01*
X1031896Y-82396D01*
X1031894Y-82473D01*
X1031896Y-82550D01*
X1031902Y-82627D01*
X1031912Y-82704D01*
X1031925Y-82780D01*
X1031943Y-82855D01*
X1031964Y-82929D01*
X1031989Y-83002D01*
X1032018Y-83074D01*
X1032050Y-83144D01*
X1032085Y-83213D01*
X1032125Y-83279D01*
X1032167Y-83344D01*
X1032213Y-83406D01*
X1032262Y-83466D01*
X1032313Y-83523D01*
X1032368Y-83578D01*
X1032425Y-83629D01*
X1032485Y-83678D01*
X1032547Y-83724D01*
X1032612Y-83766D01*
X1032678Y-83806D01*
X1032747Y-83841D01*
X1032817Y-83873D01*
X1032889Y-83902D01*
X1032962Y-83927D01*
X1033036Y-83948D01*
X1033111Y-83966D01*
X1033187Y-83979D01*
X1033264Y-83989D01*
X1033341Y-83995D01*
X1033418Y-83997D01*
X1034942Y-83997D01*
X1064927Y772845D02*
X1064927Y779703D01*
X1063022Y779703D01*
X1062937Y779701D01*
X1062851Y779695D01*
X1062766Y779686D01*
X1062682Y779672D01*
X1062598Y779655D01*
X1062515Y779634D01*
X1062433Y779610D01*
X1062353Y779582D01*
X1062273Y779550D01*
X1062195Y779514D01*
X1062119Y779476D01*
X1062045Y779433D01*
X1061973Y779388D01*
X1061902Y779339D01*
X1061834Y779287D01*
X1061769Y779233D01*
X1061706Y779175D01*
X1061645Y779114D01*
X1061587Y779051D01*
X1061533Y778986D01*
X1061481Y778918D01*
X1061432Y778847D01*
X1061387Y778775D01*
X1061344Y778701D01*
X1061306Y778625D01*
X1061270Y778547D01*
X1061238Y778467D01*
X1061210Y778387D01*
X1061186Y778305D01*
X1061165Y778222D01*
X1061148Y778138D01*
X1061134Y778054D01*
X1061125Y777969D01*
X1061119Y777883D01*
X1061117Y777798D01*
X1061119Y777713D01*
X1061125Y777627D01*
X1061134Y777542D01*
X1061148Y777458D01*
X1061165Y777374D01*
X1061186Y777291D01*
X1061210Y777209D01*
X1061238Y777129D01*
X1061270Y777049D01*
X1061306Y776971D01*
X1061344Y776895D01*
X1061387Y776821D01*
X1061432Y776749D01*
X1061481Y776678D01*
X1061533Y776610D01*
X1061587Y776545D01*
X1061645Y776482D01*
X1061706Y776421D01*
X1061769Y776363D01*
X1061834Y776309D01*
X1061902Y776257D01*
X1061973Y776208D01*
X1062045Y776163D01*
X1062119Y776120D01*
X1062195Y776082D01*
X1062273Y776046D01*
X1062353Y776014D01*
X1062433Y775986D01*
X1062515Y775962D01*
X1062598Y775941D01*
X1062682Y775924D01*
X1062766Y775910D01*
X1062851Y775901D01*
X1062937Y775895D01*
X1063022Y775893D01*
X1064927Y775893D01*
X1062641Y775893D02*
X1061117Y772845D01*
X1057681Y772845D02*
X1055395Y772845D01*
X1055318Y772847D01*
X1055241Y772853D01*
X1055164Y772863D01*
X1055088Y772876D01*
X1055013Y772894D01*
X1054939Y772915D01*
X1054866Y772940D01*
X1054794Y772969D01*
X1054724Y773001D01*
X1054655Y773036D01*
X1054589Y773076D01*
X1054524Y773118D01*
X1054462Y773164D01*
X1054402Y773213D01*
X1054345Y773264D01*
X1054290Y773319D01*
X1054239Y773376D01*
X1054190Y773436D01*
X1054144Y773498D01*
X1054102Y773563D01*
X1054062Y773629D01*
X1054027Y773698D01*
X1053995Y773768D01*
X1053966Y773840D01*
X1053941Y773913D01*
X1053920Y773987D01*
X1053902Y774062D01*
X1053889Y774138D01*
X1053879Y774215D01*
X1053873Y774292D01*
X1053871Y774369D01*
X1053871Y775131D01*
X1053873Y775208D01*
X1053879Y775285D01*
X1053889Y775362D01*
X1053902Y775438D01*
X1053920Y775513D01*
X1053941Y775587D01*
X1053966Y775660D01*
X1053995Y775732D01*
X1054027Y775802D01*
X1054062Y775871D01*
X1054102Y775937D01*
X1054144Y776002D01*
X1054190Y776064D01*
X1054239Y776124D01*
X1054290Y776181D01*
X1054345Y776236D01*
X1054402Y776287D01*
X1054462Y776336D01*
X1054524Y776382D01*
X1054589Y776424D01*
X1054655Y776464D01*
X1054724Y776499D01*
X1054794Y776531D01*
X1054866Y776560D01*
X1054939Y776585D01*
X1055013Y776606D01*
X1055088Y776624D01*
X1055164Y776637D01*
X1055241Y776647D01*
X1055318Y776653D01*
X1055395Y776655D01*
X1057681Y776655D01*
X1057681Y779703D01*
X1053871Y779703D01*
X1065251Y739725D02*
X1065251Y732867D01*
X1065251Y739725D02*
X1063346Y739725D01*
X1063261Y739723D01*
X1063175Y739717D01*
X1063090Y739708D01*
X1063006Y739694D01*
X1062922Y739677D01*
X1062839Y739656D01*
X1062757Y739632D01*
X1062677Y739604D01*
X1062597Y739572D01*
X1062519Y739536D01*
X1062443Y739498D01*
X1062369Y739455D01*
X1062297Y739410D01*
X1062226Y739361D01*
X1062158Y739309D01*
X1062093Y739255D01*
X1062030Y739197D01*
X1061969Y739136D01*
X1061911Y739073D01*
X1061857Y739008D01*
X1061805Y738940D01*
X1061756Y738869D01*
X1061711Y738797D01*
X1061668Y738723D01*
X1061630Y738647D01*
X1061594Y738569D01*
X1061562Y738489D01*
X1061534Y738409D01*
X1061510Y738327D01*
X1061489Y738244D01*
X1061472Y738160D01*
X1061458Y738076D01*
X1061449Y737991D01*
X1061443Y737905D01*
X1061441Y737820D01*
X1061443Y737735D01*
X1061449Y737649D01*
X1061458Y737564D01*
X1061472Y737480D01*
X1061489Y737396D01*
X1061510Y737313D01*
X1061534Y737231D01*
X1061562Y737151D01*
X1061594Y737071D01*
X1061630Y736993D01*
X1061668Y736917D01*
X1061711Y736843D01*
X1061756Y736771D01*
X1061805Y736700D01*
X1061857Y736632D01*
X1061911Y736567D01*
X1061969Y736504D01*
X1062030Y736443D01*
X1062093Y736385D01*
X1062158Y736331D01*
X1062226Y736279D01*
X1062297Y736230D01*
X1062369Y736185D01*
X1062443Y736142D01*
X1062519Y736104D01*
X1062597Y736068D01*
X1062677Y736036D01*
X1062757Y736008D01*
X1062839Y735984D01*
X1062922Y735963D01*
X1063006Y735946D01*
X1063090Y735932D01*
X1063175Y735923D01*
X1063261Y735917D01*
X1063346Y735915D01*
X1065251Y735915D01*
X1062965Y735915D02*
X1061441Y732867D01*
X1056481Y735915D02*
X1054195Y735915D01*
X1056481Y735915D02*
X1056558Y735917D01*
X1056635Y735923D01*
X1056712Y735933D01*
X1056788Y735946D01*
X1056863Y735964D01*
X1056937Y735985D01*
X1057010Y736010D01*
X1057082Y736039D01*
X1057152Y736071D01*
X1057221Y736106D01*
X1057287Y736146D01*
X1057352Y736188D01*
X1057414Y736234D01*
X1057474Y736283D01*
X1057531Y736334D01*
X1057586Y736389D01*
X1057637Y736446D01*
X1057686Y736506D01*
X1057732Y736568D01*
X1057774Y736633D01*
X1057814Y736699D01*
X1057849Y736768D01*
X1057881Y736838D01*
X1057910Y736910D01*
X1057935Y736983D01*
X1057956Y737057D01*
X1057974Y737132D01*
X1057987Y737208D01*
X1057997Y737285D01*
X1058003Y737362D01*
X1058005Y737439D01*
X1058005Y737820D01*
X1058003Y737905D01*
X1057997Y737991D01*
X1057988Y738076D01*
X1057974Y738160D01*
X1057957Y738244D01*
X1057936Y738327D01*
X1057912Y738409D01*
X1057884Y738489D01*
X1057852Y738569D01*
X1057816Y738647D01*
X1057778Y738723D01*
X1057735Y738797D01*
X1057690Y738869D01*
X1057641Y738940D01*
X1057589Y739008D01*
X1057535Y739073D01*
X1057477Y739136D01*
X1057416Y739197D01*
X1057353Y739255D01*
X1057288Y739309D01*
X1057220Y739361D01*
X1057149Y739410D01*
X1057077Y739455D01*
X1057003Y739498D01*
X1056927Y739536D01*
X1056849Y739572D01*
X1056769Y739604D01*
X1056689Y739632D01*
X1056607Y739656D01*
X1056524Y739677D01*
X1056440Y739694D01*
X1056356Y739708D01*
X1056271Y739717D01*
X1056185Y739723D01*
X1056100Y739725D01*
X1056015Y739723D01*
X1055929Y739717D01*
X1055844Y739708D01*
X1055760Y739694D01*
X1055676Y739677D01*
X1055593Y739656D01*
X1055511Y739632D01*
X1055431Y739604D01*
X1055351Y739572D01*
X1055273Y739536D01*
X1055197Y739498D01*
X1055123Y739455D01*
X1055051Y739410D01*
X1054980Y739361D01*
X1054912Y739309D01*
X1054847Y739255D01*
X1054784Y739197D01*
X1054723Y739136D01*
X1054665Y739073D01*
X1054611Y739008D01*
X1054559Y738940D01*
X1054510Y738869D01*
X1054465Y738797D01*
X1054422Y738723D01*
X1054384Y738647D01*
X1054348Y738569D01*
X1054316Y738489D01*
X1054288Y738409D01*
X1054264Y738327D01*
X1054243Y738244D01*
X1054226Y738160D01*
X1054212Y738076D01*
X1054203Y737991D01*
X1054197Y737905D01*
X1054195Y737820D01*
X1054195Y735915D01*
X1054197Y735806D01*
X1054203Y735698D01*
X1054212Y735589D01*
X1054226Y735481D01*
X1054243Y735374D01*
X1054265Y735267D01*
X1054290Y735161D01*
X1054318Y735056D01*
X1054351Y734952D01*
X1054387Y734850D01*
X1054427Y734749D01*
X1054470Y734649D01*
X1054517Y734551D01*
X1054568Y734454D01*
X1054622Y734360D01*
X1054679Y734267D01*
X1054739Y734177D01*
X1054803Y734088D01*
X1054870Y734002D01*
X1054939Y733919D01*
X1055012Y733838D01*
X1055088Y733760D01*
X1055166Y733684D01*
X1055247Y733611D01*
X1055330Y733542D01*
X1055416Y733475D01*
X1055505Y733411D01*
X1055595Y733351D01*
X1055688Y733294D01*
X1055782Y733240D01*
X1055879Y733189D01*
X1055977Y733142D01*
X1056077Y733099D01*
X1056178Y733059D01*
X1056280Y733023D01*
X1056384Y732990D01*
X1056489Y732962D01*
X1056595Y732937D01*
X1056702Y732915D01*
X1056809Y732898D01*
X1056917Y732884D01*
X1057026Y732875D01*
X1057134Y732869D01*
X1057243Y732867D01*
M02*
