G04 EAGLE Gerber RS-274X export*
G75*
%MOMM*%
%FSLAX34Y34*%
%LPD*%
%INSoldermask Top*%
%IPPOS*%
%AMOC8*
5,1,8,0,0,1.08239X$1,22.5*%
G01*
%ADD10R,0.803200X0.803200*%
%ADD11R,2.923200X1.163200*%
%ADD12R,0.903200X1.103200*%
%ADD13R,1.203200X1.303200*%
%ADD14R,1.473200X2.263200*%
%ADD15R,1.103200X0.903200*%
%ADD16R,1.303200X1.203200*%
%ADD17R,1.003200X1.403200*%
%ADD18R,1.403200X1.003200*%
%ADD19R,4.114800X1.193800*%
%ADD20R,11.658600X10.642600*%
%ADD21C,0.505344*%
%ADD22R,1.411200X1.411200*%
%ADD23C,1.411200*%
%ADD24R,1.300000X0.350000*%
%ADD25R,0.350000X1.300000*%
%ADD26R,2.603200X0.963200*%
%ADD27R,1.903200X3.003200*%
%ADD28C,0.353406*%
%ADD29R,1.103200X1.003200*%
%ADD30R,0.803200X0.703200*%
%ADD31R,0.703200X0.803200*%
%ADD32C,1.727200*%
%ADD33P,1.869504X8X202.500000*%
%ADD34C,1.727200*%
%ADD35R,0.660400X0.457200*%
%ADD36R,1.041400X0.914400*%
%ADD37R,2.903200X2.903200*%
%ADD38R,2.453200X2.453200*%
%ADD39C,0.384453*%
%ADD40R,4.403200X4.403200*%
%ADD41R,1.701800X0.736600*%
%ADD42R,0.623200X0.803200*%
%ADD43C,0.623200*%
%ADD44R,0.711200X1.524000*%
%ADD45R,0.508000X1.079500*%
%ADD46R,2.753200X2.753200*%
%ADD47C,2.753200*%
%ADD48R,1.003200X1.103200*%
%ADD49R,2.003200X1.203200*%
%ADD50R,1.303200X1.403200*%
%ADD51P,1.869504X8X292.500000*%
%ADD52R,1.603200X3.203200*%
%ADD53R,0.503200X0.728200*%
%ADD54R,0.628200X0.503200*%
%ADD55C,3.803200*%
%ADD56C,0.863600*%
%ADD57C,0.959600*%
%ADD58C,1.259600*%


D10*
X612568Y1056640D03*
X602568Y1056640D03*
D11*
X1101344Y738638D03*
X1101344Y771138D03*
X1136396Y739146D03*
X1136396Y771646D03*
D12*
X1020676Y747776D03*
X1033676Y747776D03*
D13*
X1081532Y696096D03*
X1081532Y713096D03*
D14*
X1062506Y691896D03*
X1027406Y691896D03*
D15*
X1052576Y761596D03*
X1052576Y774596D03*
D13*
X1027176Y733416D03*
X1027176Y716416D03*
X1071372Y263788D03*
X1071372Y280788D03*
D14*
X1053362Y260096D03*
X1018262Y260096D03*
D10*
X581152Y1093136D03*
X581152Y1083136D03*
D11*
X1093724Y306838D03*
X1093724Y339338D03*
X1126744Y306838D03*
X1126744Y339338D03*
D12*
X1011024Y315468D03*
X1024024Y315468D03*
D15*
X1042924Y329288D03*
X1042924Y342288D03*
D13*
X1017524Y301108D03*
X1017524Y284108D03*
D16*
X1043804Y-104648D03*
X1026804Y-104648D03*
D13*
X1063244Y-124832D03*
X1063244Y-107832D03*
D14*
X1045234Y-129032D03*
X1010134Y-129032D03*
D10*
X589708Y1113028D03*
X579708Y1113028D03*
D11*
X1086104Y-81782D03*
X1086104Y-49282D03*
X1119124Y-81782D03*
X1119124Y-49282D03*
D12*
X1003404Y-73152D03*
X1016404Y-73152D03*
D15*
X1035304Y-59332D03*
X1035304Y-46332D03*
D13*
X1009904Y-87512D03*
X1009904Y-104512D03*
D17*
X1172828Y581152D03*
X1154828Y581152D03*
X1146920Y35052D03*
X1128920Y35052D03*
X1046336Y464820D03*
X1028336Y464820D03*
D10*
X590216Y1138428D03*
X580216Y1138428D03*
X743792Y756920D03*
X753792Y756920D03*
X748364Y643636D03*
X758364Y643636D03*
X776304Y747776D03*
X786304Y747776D03*
X747268Y525192D03*
X747268Y515192D03*
X718232Y625348D03*
X708232Y625348D03*
X674624Y665908D03*
X674624Y655908D03*
X718232Y638048D03*
X708232Y638048D03*
X671576Y682832D03*
X671576Y692832D03*
D16*
X625212Y303022D03*
X608212Y303022D03*
D17*
X1032112Y883920D03*
X1014112Y883920D03*
D16*
X663566Y236474D03*
X646566Y236474D03*
D13*
X683006Y282584D03*
X683006Y299584D03*
D16*
X646820Y367792D03*
X663820Y367792D03*
D18*
X1041908Y986172D03*
X1041908Y1004172D03*
D17*
X1020428Y56388D03*
X1002428Y56388D03*
D16*
X1051424Y283972D03*
X1034424Y283972D03*
X1061076Y716280D03*
X1044076Y716280D03*
D19*
X1033907Y538464D03*
D20*
X1122680Y512064D03*
D19*
X1033907Y485664D03*
X1008507Y129524D03*
D20*
X1097280Y103124D03*
D19*
X1008507Y76724D03*
X1031875Y961628D03*
D20*
X1120648Y935228D03*
D19*
X1031875Y908828D03*
D21*
X512506Y1160072D02*
X505526Y1160072D01*
X512506Y1160072D02*
X512506Y1153092D01*
X505526Y1153092D01*
X505526Y1160072D01*
X505526Y1157892D02*
X512506Y1157892D01*
X512506Y1177612D02*
X505526Y1177612D01*
X512506Y1177612D02*
X512506Y1170632D01*
X505526Y1170632D01*
X505526Y1177612D01*
X505526Y1175432D02*
X512506Y1175432D01*
X530418Y1160072D02*
X537398Y1160072D01*
X537398Y1153092D01*
X530418Y1153092D01*
X530418Y1160072D01*
X530418Y1157892D02*
X537398Y1157892D01*
X537398Y1177612D02*
X530418Y1177612D01*
X537398Y1177612D02*
X537398Y1170632D01*
X530418Y1170632D01*
X530418Y1177612D01*
X530418Y1175432D02*
X537398Y1175432D01*
X553786Y1161088D02*
X560766Y1161088D01*
X560766Y1154108D01*
X553786Y1154108D01*
X553786Y1161088D01*
X553786Y1158908D02*
X560766Y1158908D01*
X560766Y1178628D02*
X553786Y1178628D01*
X560766Y1178628D02*
X560766Y1171648D01*
X553786Y1171648D01*
X553786Y1178628D01*
X553786Y1176448D02*
X560766Y1176448D01*
D22*
X409420Y1283120D03*
D23*
X429420Y1283120D03*
X449420Y1283120D03*
X469420Y1283120D03*
D22*
X406880Y1097700D03*
D23*
X426880Y1097700D03*
X446880Y1097700D03*
X466880Y1097700D03*
D22*
X409420Y726860D03*
D23*
X429420Y726860D03*
X449420Y726860D03*
X469420Y726860D03*
D22*
X409420Y541440D03*
D23*
X429420Y541440D03*
X449420Y541440D03*
X469420Y541440D03*
D22*
X409420Y356020D03*
D23*
X429420Y356020D03*
X449420Y356020D03*
X469420Y356020D03*
D22*
X409420Y170600D03*
D23*
X429420Y170600D03*
X449420Y170600D03*
X469420Y170600D03*
D22*
X409420Y-14820D03*
D23*
X429420Y-14820D03*
X449420Y-14820D03*
X469420Y-14820D03*
D24*
X654544Y1148136D03*
X654544Y1143136D03*
X654544Y1138136D03*
X654544Y1133136D03*
X654544Y1128136D03*
X654544Y1123136D03*
X654544Y1118136D03*
X654544Y1113136D03*
X654544Y1108136D03*
X654544Y1103136D03*
X654544Y1098136D03*
X654544Y1093136D03*
X654544Y1088136D03*
X654544Y1083136D03*
X654544Y1078136D03*
X654544Y1073136D03*
X654544Y1068136D03*
X654544Y1063136D03*
X654544Y1058136D03*
X654544Y1053136D03*
X654544Y1048136D03*
X654544Y1043136D03*
X654544Y1038136D03*
X654544Y1033136D03*
X654544Y1028136D03*
D25*
X673044Y1009636D03*
X678044Y1009636D03*
X683044Y1009636D03*
X688044Y1009636D03*
X693044Y1009636D03*
X698044Y1009636D03*
X703044Y1009636D03*
X708044Y1009636D03*
X713044Y1009636D03*
X718044Y1009636D03*
X723044Y1009636D03*
X728044Y1009636D03*
X733044Y1009636D03*
X738044Y1009636D03*
X743044Y1009636D03*
X748044Y1009636D03*
X753044Y1009636D03*
X758044Y1009636D03*
X763044Y1009636D03*
X768044Y1009636D03*
X773044Y1009636D03*
X778044Y1009636D03*
X783044Y1009636D03*
X788044Y1009636D03*
X793044Y1009636D03*
D24*
X811544Y1028136D03*
X811544Y1033136D03*
X811544Y1038136D03*
X811544Y1043136D03*
X811544Y1048136D03*
X811544Y1053136D03*
X811544Y1058136D03*
X811544Y1063136D03*
X811544Y1068136D03*
X811544Y1073136D03*
X811544Y1078136D03*
X811544Y1083136D03*
X811544Y1088136D03*
X811544Y1093136D03*
X811544Y1098136D03*
X811544Y1103136D03*
X811544Y1108136D03*
X811544Y1113136D03*
X811544Y1118136D03*
X811544Y1123136D03*
X811544Y1128136D03*
X811544Y1133136D03*
X811544Y1138136D03*
X811544Y1143136D03*
X811544Y1148136D03*
D25*
X793044Y1166636D03*
X788044Y1166636D03*
X783044Y1166636D03*
X778044Y1166636D03*
X773044Y1166636D03*
X768044Y1166636D03*
X763044Y1166636D03*
X758044Y1166636D03*
X753044Y1166636D03*
X748044Y1166636D03*
X743044Y1166636D03*
X738044Y1166636D03*
X733044Y1166636D03*
X728044Y1166636D03*
X723044Y1166636D03*
X718044Y1166636D03*
X713044Y1166636D03*
X708044Y1166636D03*
X703044Y1166636D03*
X698044Y1166636D03*
X693044Y1166636D03*
X688044Y1166636D03*
X683044Y1166636D03*
X678044Y1166636D03*
X673044Y1166636D03*
D26*
X998416Y1173480D03*
X998416Y1160780D03*
X998416Y1148080D03*
X998416Y1186180D03*
X998416Y1198880D03*
X959416Y1198880D03*
X959416Y1186180D03*
X959416Y1173480D03*
X959416Y1160780D03*
X959416Y1148080D03*
D22*
X409420Y912280D03*
D23*
X429420Y912280D03*
X449420Y912280D03*
X469420Y912280D03*
D27*
X1131512Y264668D03*
X1092512Y264668D03*
X1140656Y696976D03*
X1101656Y696976D03*
X1123384Y-123952D03*
X1084384Y-123952D03*
D28*
X271369Y1271561D02*
X253171Y1271561D01*
X253171Y1276059D01*
X271369Y1276059D01*
X271369Y1271561D01*
X271369Y1274918D02*
X253171Y1274918D01*
X253171Y1258861D02*
X271369Y1258861D01*
X253171Y1258861D02*
X253171Y1263359D01*
X271369Y1263359D01*
X271369Y1258861D01*
X271369Y1262218D02*
X253171Y1262218D01*
X253171Y1246161D02*
X271369Y1246161D01*
X253171Y1246161D02*
X253171Y1250659D01*
X271369Y1250659D01*
X271369Y1246161D01*
X271369Y1249518D02*
X253171Y1249518D01*
X253171Y1233461D02*
X271369Y1233461D01*
X253171Y1233461D02*
X253171Y1237959D01*
X271369Y1237959D01*
X271369Y1233461D01*
X271369Y1236818D02*
X253171Y1236818D01*
X253171Y1220761D02*
X271369Y1220761D01*
X253171Y1220761D02*
X253171Y1225259D01*
X271369Y1225259D01*
X271369Y1220761D01*
X271369Y1224118D02*
X253171Y1224118D01*
X253171Y1208061D02*
X271369Y1208061D01*
X253171Y1208061D02*
X253171Y1212559D01*
X271369Y1212559D01*
X271369Y1208061D01*
X271369Y1211418D02*
X253171Y1211418D01*
X253171Y1195361D02*
X271369Y1195361D01*
X253171Y1195361D02*
X253171Y1199859D01*
X271369Y1199859D01*
X271369Y1195361D01*
X271369Y1198718D02*
X253171Y1198718D01*
X253171Y1182661D02*
X271369Y1182661D01*
X253171Y1182661D02*
X253171Y1187159D01*
X271369Y1187159D01*
X271369Y1182661D01*
X271369Y1186018D02*
X253171Y1186018D01*
X302671Y1182661D02*
X320869Y1182661D01*
X302671Y1182661D02*
X302671Y1187159D01*
X320869Y1187159D01*
X320869Y1182661D01*
X320869Y1186018D02*
X302671Y1186018D01*
X302671Y1195361D02*
X320869Y1195361D01*
X302671Y1195361D02*
X302671Y1199859D01*
X320869Y1199859D01*
X320869Y1195361D01*
X320869Y1198718D02*
X302671Y1198718D01*
X302671Y1208061D02*
X320869Y1208061D01*
X302671Y1208061D02*
X302671Y1212559D01*
X320869Y1212559D01*
X320869Y1208061D01*
X320869Y1211418D02*
X302671Y1211418D01*
X302671Y1220761D02*
X320869Y1220761D01*
X302671Y1220761D02*
X302671Y1225259D01*
X320869Y1225259D01*
X320869Y1220761D01*
X320869Y1224118D02*
X302671Y1224118D01*
X302671Y1233461D02*
X320869Y1233461D01*
X302671Y1233461D02*
X302671Y1237959D01*
X320869Y1237959D01*
X320869Y1233461D01*
X320869Y1236818D02*
X302671Y1236818D01*
X302671Y1246161D02*
X320869Y1246161D01*
X302671Y1246161D02*
X302671Y1250659D01*
X320869Y1250659D01*
X320869Y1246161D01*
X320869Y1249518D02*
X302671Y1249518D01*
X302671Y1258861D02*
X320869Y1258861D01*
X302671Y1258861D02*
X302671Y1263359D01*
X320869Y1263359D01*
X320869Y1258861D01*
X320869Y1262218D02*
X302671Y1262218D01*
X302671Y1271561D02*
X320869Y1271561D01*
X302671Y1271561D02*
X302671Y1276059D01*
X320869Y1276059D01*
X320869Y1271561D01*
X320869Y1274918D02*
X302671Y1274918D01*
X273909Y1086141D02*
X255711Y1086141D01*
X255711Y1090639D01*
X273909Y1090639D01*
X273909Y1086141D01*
X273909Y1089498D02*
X255711Y1089498D01*
X255711Y1073441D02*
X273909Y1073441D01*
X255711Y1073441D02*
X255711Y1077939D01*
X273909Y1077939D01*
X273909Y1073441D01*
X273909Y1076798D02*
X255711Y1076798D01*
X255711Y1060741D02*
X273909Y1060741D01*
X255711Y1060741D02*
X255711Y1065239D01*
X273909Y1065239D01*
X273909Y1060741D01*
X273909Y1064098D02*
X255711Y1064098D01*
X255711Y1048041D02*
X273909Y1048041D01*
X255711Y1048041D02*
X255711Y1052539D01*
X273909Y1052539D01*
X273909Y1048041D01*
X273909Y1051398D02*
X255711Y1051398D01*
X255711Y1035341D02*
X273909Y1035341D01*
X255711Y1035341D02*
X255711Y1039839D01*
X273909Y1039839D01*
X273909Y1035341D01*
X273909Y1038698D02*
X255711Y1038698D01*
X255711Y1022641D02*
X273909Y1022641D01*
X255711Y1022641D02*
X255711Y1027139D01*
X273909Y1027139D01*
X273909Y1022641D01*
X273909Y1025998D02*
X255711Y1025998D01*
X255711Y1009941D02*
X273909Y1009941D01*
X255711Y1009941D02*
X255711Y1014439D01*
X273909Y1014439D01*
X273909Y1009941D01*
X273909Y1013298D02*
X255711Y1013298D01*
X255711Y997241D02*
X273909Y997241D01*
X255711Y997241D02*
X255711Y1001739D01*
X273909Y1001739D01*
X273909Y997241D01*
X273909Y1000598D02*
X255711Y1000598D01*
X305211Y997241D02*
X323409Y997241D01*
X305211Y997241D02*
X305211Y1001739D01*
X323409Y1001739D01*
X323409Y997241D01*
X323409Y1000598D02*
X305211Y1000598D01*
X305211Y1009941D02*
X323409Y1009941D01*
X305211Y1009941D02*
X305211Y1014439D01*
X323409Y1014439D01*
X323409Y1009941D01*
X323409Y1013298D02*
X305211Y1013298D01*
X305211Y1022641D02*
X323409Y1022641D01*
X305211Y1022641D02*
X305211Y1027139D01*
X323409Y1027139D01*
X323409Y1022641D01*
X323409Y1025998D02*
X305211Y1025998D01*
X305211Y1035341D02*
X323409Y1035341D01*
X305211Y1035341D02*
X305211Y1039839D01*
X323409Y1039839D01*
X323409Y1035341D01*
X323409Y1038698D02*
X305211Y1038698D01*
X305211Y1048041D02*
X323409Y1048041D01*
X305211Y1048041D02*
X305211Y1052539D01*
X323409Y1052539D01*
X323409Y1048041D01*
X323409Y1051398D02*
X305211Y1051398D01*
X305211Y1060741D02*
X323409Y1060741D01*
X305211Y1060741D02*
X305211Y1065239D01*
X323409Y1065239D01*
X323409Y1060741D01*
X323409Y1064098D02*
X305211Y1064098D01*
X305211Y1073441D02*
X323409Y1073441D01*
X305211Y1073441D02*
X305211Y1077939D01*
X323409Y1077939D01*
X323409Y1073441D01*
X323409Y1076798D02*
X305211Y1076798D01*
X305211Y1086141D02*
X323409Y1086141D01*
X305211Y1086141D02*
X305211Y1090639D01*
X323409Y1090639D01*
X323409Y1086141D01*
X323409Y1089498D02*
X305211Y1089498D01*
X273909Y900721D02*
X255711Y900721D01*
X255711Y905219D01*
X273909Y905219D01*
X273909Y900721D01*
X273909Y904078D02*
X255711Y904078D01*
X255711Y888021D02*
X273909Y888021D01*
X255711Y888021D02*
X255711Y892519D01*
X273909Y892519D01*
X273909Y888021D01*
X273909Y891378D02*
X255711Y891378D01*
X255711Y875321D02*
X273909Y875321D01*
X255711Y875321D02*
X255711Y879819D01*
X273909Y879819D01*
X273909Y875321D01*
X273909Y878678D02*
X255711Y878678D01*
X255711Y862621D02*
X273909Y862621D01*
X255711Y862621D02*
X255711Y867119D01*
X273909Y867119D01*
X273909Y862621D01*
X273909Y865978D02*
X255711Y865978D01*
X255711Y849921D02*
X273909Y849921D01*
X255711Y849921D02*
X255711Y854419D01*
X273909Y854419D01*
X273909Y849921D01*
X273909Y853278D02*
X255711Y853278D01*
X255711Y837221D02*
X273909Y837221D01*
X255711Y837221D02*
X255711Y841719D01*
X273909Y841719D01*
X273909Y837221D01*
X273909Y840578D02*
X255711Y840578D01*
X255711Y824521D02*
X273909Y824521D01*
X255711Y824521D02*
X255711Y829019D01*
X273909Y829019D01*
X273909Y824521D01*
X273909Y827878D02*
X255711Y827878D01*
X255711Y811821D02*
X273909Y811821D01*
X255711Y811821D02*
X255711Y816319D01*
X273909Y816319D01*
X273909Y811821D01*
X273909Y815178D02*
X255711Y815178D01*
X305211Y811821D02*
X323409Y811821D01*
X305211Y811821D02*
X305211Y816319D01*
X323409Y816319D01*
X323409Y811821D01*
X323409Y815178D02*
X305211Y815178D01*
X305211Y824521D02*
X323409Y824521D01*
X305211Y824521D02*
X305211Y829019D01*
X323409Y829019D01*
X323409Y824521D01*
X323409Y827878D02*
X305211Y827878D01*
X305211Y837221D02*
X323409Y837221D01*
X305211Y837221D02*
X305211Y841719D01*
X323409Y841719D01*
X323409Y837221D01*
X323409Y840578D02*
X305211Y840578D01*
X305211Y849921D02*
X323409Y849921D01*
X305211Y849921D02*
X305211Y854419D01*
X323409Y854419D01*
X323409Y849921D01*
X323409Y853278D02*
X305211Y853278D01*
X305211Y862621D02*
X323409Y862621D01*
X305211Y862621D02*
X305211Y867119D01*
X323409Y867119D01*
X323409Y862621D01*
X323409Y865978D02*
X305211Y865978D01*
X305211Y875321D02*
X323409Y875321D01*
X305211Y875321D02*
X305211Y879819D01*
X323409Y879819D01*
X323409Y875321D01*
X323409Y878678D02*
X305211Y878678D01*
X305211Y888021D02*
X323409Y888021D01*
X305211Y888021D02*
X305211Y892519D01*
X323409Y892519D01*
X323409Y888021D01*
X323409Y891378D02*
X305211Y891378D01*
X305211Y900721D02*
X323409Y900721D01*
X305211Y900721D02*
X305211Y905219D01*
X323409Y905219D01*
X323409Y900721D01*
X323409Y904078D02*
X305211Y904078D01*
X273909Y715301D02*
X255711Y715301D01*
X255711Y719799D01*
X273909Y719799D01*
X273909Y715301D01*
X273909Y718658D02*
X255711Y718658D01*
X255711Y702601D02*
X273909Y702601D01*
X255711Y702601D02*
X255711Y707099D01*
X273909Y707099D01*
X273909Y702601D01*
X273909Y705958D02*
X255711Y705958D01*
X255711Y689901D02*
X273909Y689901D01*
X255711Y689901D02*
X255711Y694399D01*
X273909Y694399D01*
X273909Y689901D01*
X273909Y693258D02*
X255711Y693258D01*
X255711Y677201D02*
X273909Y677201D01*
X255711Y677201D02*
X255711Y681699D01*
X273909Y681699D01*
X273909Y677201D01*
X273909Y680558D02*
X255711Y680558D01*
X255711Y664501D02*
X273909Y664501D01*
X255711Y664501D02*
X255711Y668999D01*
X273909Y668999D01*
X273909Y664501D01*
X273909Y667858D02*
X255711Y667858D01*
X255711Y651801D02*
X273909Y651801D01*
X255711Y651801D02*
X255711Y656299D01*
X273909Y656299D01*
X273909Y651801D01*
X273909Y655158D02*
X255711Y655158D01*
X255711Y639101D02*
X273909Y639101D01*
X255711Y639101D02*
X255711Y643599D01*
X273909Y643599D01*
X273909Y639101D01*
X273909Y642458D02*
X255711Y642458D01*
X255711Y626401D02*
X273909Y626401D01*
X255711Y626401D02*
X255711Y630899D01*
X273909Y630899D01*
X273909Y626401D01*
X273909Y629758D02*
X255711Y629758D01*
X305211Y626401D02*
X323409Y626401D01*
X305211Y626401D02*
X305211Y630899D01*
X323409Y630899D01*
X323409Y626401D01*
X323409Y629758D02*
X305211Y629758D01*
X305211Y639101D02*
X323409Y639101D01*
X305211Y639101D02*
X305211Y643599D01*
X323409Y643599D01*
X323409Y639101D01*
X323409Y642458D02*
X305211Y642458D01*
X305211Y651801D02*
X323409Y651801D01*
X305211Y651801D02*
X305211Y656299D01*
X323409Y656299D01*
X323409Y651801D01*
X323409Y655158D02*
X305211Y655158D01*
X305211Y664501D02*
X323409Y664501D01*
X305211Y664501D02*
X305211Y668999D01*
X323409Y668999D01*
X323409Y664501D01*
X323409Y667858D02*
X305211Y667858D01*
X305211Y677201D02*
X323409Y677201D01*
X305211Y677201D02*
X305211Y681699D01*
X323409Y681699D01*
X323409Y677201D01*
X323409Y680558D02*
X305211Y680558D01*
X305211Y689901D02*
X323409Y689901D01*
X305211Y689901D02*
X305211Y694399D01*
X323409Y694399D01*
X323409Y689901D01*
X323409Y693258D02*
X305211Y693258D01*
X305211Y702601D02*
X323409Y702601D01*
X305211Y702601D02*
X305211Y707099D01*
X323409Y707099D01*
X323409Y702601D01*
X323409Y705958D02*
X305211Y705958D01*
X305211Y715301D02*
X323409Y715301D01*
X305211Y715301D02*
X305211Y719799D01*
X323409Y719799D01*
X323409Y715301D01*
X323409Y718658D02*
X305211Y718658D01*
X273909Y529881D02*
X255711Y529881D01*
X255711Y534379D01*
X273909Y534379D01*
X273909Y529881D01*
X273909Y533238D02*
X255711Y533238D01*
X255711Y517181D02*
X273909Y517181D01*
X255711Y517181D02*
X255711Y521679D01*
X273909Y521679D01*
X273909Y517181D01*
X273909Y520538D02*
X255711Y520538D01*
X255711Y504481D02*
X273909Y504481D01*
X255711Y504481D02*
X255711Y508979D01*
X273909Y508979D01*
X273909Y504481D01*
X273909Y507838D02*
X255711Y507838D01*
X255711Y491781D02*
X273909Y491781D01*
X255711Y491781D02*
X255711Y496279D01*
X273909Y496279D01*
X273909Y491781D01*
X273909Y495138D02*
X255711Y495138D01*
X255711Y479081D02*
X273909Y479081D01*
X255711Y479081D02*
X255711Y483579D01*
X273909Y483579D01*
X273909Y479081D01*
X273909Y482438D02*
X255711Y482438D01*
X255711Y466381D02*
X273909Y466381D01*
X255711Y466381D02*
X255711Y470879D01*
X273909Y470879D01*
X273909Y466381D01*
X273909Y469738D02*
X255711Y469738D01*
X255711Y453681D02*
X273909Y453681D01*
X255711Y453681D02*
X255711Y458179D01*
X273909Y458179D01*
X273909Y453681D01*
X273909Y457038D02*
X255711Y457038D01*
X255711Y440981D02*
X273909Y440981D01*
X255711Y440981D02*
X255711Y445479D01*
X273909Y445479D01*
X273909Y440981D01*
X273909Y444338D02*
X255711Y444338D01*
X305211Y440981D02*
X323409Y440981D01*
X305211Y440981D02*
X305211Y445479D01*
X323409Y445479D01*
X323409Y440981D01*
X323409Y444338D02*
X305211Y444338D01*
X305211Y453681D02*
X323409Y453681D01*
X305211Y453681D02*
X305211Y458179D01*
X323409Y458179D01*
X323409Y453681D01*
X323409Y457038D02*
X305211Y457038D01*
X305211Y466381D02*
X323409Y466381D01*
X305211Y466381D02*
X305211Y470879D01*
X323409Y470879D01*
X323409Y466381D01*
X323409Y469738D02*
X305211Y469738D01*
X305211Y479081D02*
X323409Y479081D01*
X305211Y479081D02*
X305211Y483579D01*
X323409Y483579D01*
X323409Y479081D01*
X323409Y482438D02*
X305211Y482438D01*
X305211Y491781D02*
X323409Y491781D01*
X305211Y491781D02*
X305211Y496279D01*
X323409Y496279D01*
X323409Y491781D01*
X323409Y495138D02*
X305211Y495138D01*
X305211Y504481D02*
X323409Y504481D01*
X305211Y504481D02*
X305211Y508979D01*
X323409Y508979D01*
X323409Y504481D01*
X323409Y507838D02*
X305211Y507838D01*
X305211Y517181D02*
X323409Y517181D01*
X305211Y517181D02*
X305211Y521679D01*
X323409Y521679D01*
X323409Y517181D01*
X323409Y520538D02*
X305211Y520538D01*
X305211Y529881D02*
X323409Y529881D01*
X305211Y529881D02*
X305211Y534379D01*
X323409Y534379D01*
X323409Y529881D01*
X323409Y533238D02*
X305211Y533238D01*
X273909Y344461D02*
X255711Y344461D01*
X255711Y348959D01*
X273909Y348959D01*
X273909Y344461D01*
X273909Y347818D02*
X255711Y347818D01*
X255711Y331761D02*
X273909Y331761D01*
X255711Y331761D02*
X255711Y336259D01*
X273909Y336259D01*
X273909Y331761D01*
X273909Y335118D02*
X255711Y335118D01*
X255711Y319061D02*
X273909Y319061D01*
X255711Y319061D02*
X255711Y323559D01*
X273909Y323559D01*
X273909Y319061D01*
X273909Y322418D02*
X255711Y322418D01*
X255711Y306361D02*
X273909Y306361D01*
X255711Y306361D02*
X255711Y310859D01*
X273909Y310859D01*
X273909Y306361D01*
X273909Y309718D02*
X255711Y309718D01*
X255711Y293661D02*
X273909Y293661D01*
X255711Y293661D02*
X255711Y298159D01*
X273909Y298159D01*
X273909Y293661D01*
X273909Y297018D02*
X255711Y297018D01*
X255711Y280961D02*
X273909Y280961D01*
X255711Y280961D02*
X255711Y285459D01*
X273909Y285459D01*
X273909Y280961D01*
X273909Y284318D02*
X255711Y284318D01*
X255711Y268261D02*
X273909Y268261D01*
X255711Y268261D02*
X255711Y272759D01*
X273909Y272759D01*
X273909Y268261D01*
X273909Y271618D02*
X255711Y271618D01*
X255711Y255561D02*
X273909Y255561D01*
X255711Y255561D02*
X255711Y260059D01*
X273909Y260059D01*
X273909Y255561D01*
X273909Y258918D02*
X255711Y258918D01*
X305211Y255561D02*
X323409Y255561D01*
X305211Y255561D02*
X305211Y260059D01*
X323409Y260059D01*
X323409Y255561D01*
X323409Y258918D02*
X305211Y258918D01*
X305211Y268261D02*
X323409Y268261D01*
X305211Y268261D02*
X305211Y272759D01*
X323409Y272759D01*
X323409Y268261D01*
X323409Y271618D02*
X305211Y271618D01*
X305211Y280961D02*
X323409Y280961D01*
X305211Y280961D02*
X305211Y285459D01*
X323409Y285459D01*
X323409Y280961D01*
X323409Y284318D02*
X305211Y284318D01*
X305211Y293661D02*
X323409Y293661D01*
X305211Y293661D02*
X305211Y298159D01*
X323409Y298159D01*
X323409Y293661D01*
X323409Y297018D02*
X305211Y297018D01*
X305211Y306361D02*
X323409Y306361D01*
X305211Y306361D02*
X305211Y310859D01*
X323409Y310859D01*
X323409Y306361D01*
X323409Y309718D02*
X305211Y309718D01*
X305211Y319061D02*
X323409Y319061D01*
X305211Y319061D02*
X305211Y323559D01*
X323409Y323559D01*
X323409Y319061D01*
X323409Y322418D02*
X305211Y322418D01*
X305211Y331761D02*
X323409Y331761D01*
X305211Y331761D02*
X305211Y336259D01*
X323409Y336259D01*
X323409Y331761D01*
X323409Y335118D02*
X305211Y335118D01*
X305211Y344461D02*
X323409Y344461D01*
X305211Y344461D02*
X305211Y348959D01*
X323409Y348959D01*
X323409Y344461D01*
X323409Y347818D02*
X305211Y347818D01*
X273909Y159041D02*
X255711Y159041D01*
X255711Y163539D01*
X273909Y163539D01*
X273909Y159041D01*
X273909Y162398D02*
X255711Y162398D01*
X255711Y146341D02*
X273909Y146341D01*
X255711Y146341D02*
X255711Y150839D01*
X273909Y150839D01*
X273909Y146341D01*
X273909Y149698D02*
X255711Y149698D01*
X255711Y133641D02*
X273909Y133641D01*
X255711Y133641D02*
X255711Y138139D01*
X273909Y138139D01*
X273909Y133641D01*
X273909Y136998D02*
X255711Y136998D01*
X255711Y120941D02*
X273909Y120941D01*
X255711Y120941D02*
X255711Y125439D01*
X273909Y125439D01*
X273909Y120941D01*
X273909Y124298D02*
X255711Y124298D01*
X255711Y108241D02*
X273909Y108241D01*
X255711Y108241D02*
X255711Y112739D01*
X273909Y112739D01*
X273909Y108241D01*
X273909Y111598D02*
X255711Y111598D01*
X255711Y95541D02*
X273909Y95541D01*
X255711Y95541D02*
X255711Y100039D01*
X273909Y100039D01*
X273909Y95541D01*
X273909Y98898D02*
X255711Y98898D01*
X255711Y82841D02*
X273909Y82841D01*
X255711Y82841D02*
X255711Y87339D01*
X273909Y87339D01*
X273909Y82841D01*
X273909Y86198D02*
X255711Y86198D01*
X255711Y70141D02*
X273909Y70141D01*
X255711Y70141D02*
X255711Y74639D01*
X273909Y74639D01*
X273909Y70141D01*
X273909Y73498D02*
X255711Y73498D01*
X305211Y70141D02*
X323409Y70141D01*
X305211Y70141D02*
X305211Y74639D01*
X323409Y74639D01*
X323409Y70141D01*
X323409Y73498D02*
X305211Y73498D01*
X305211Y82841D02*
X323409Y82841D01*
X305211Y82841D02*
X305211Y87339D01*
X323409Y87339D01*
X323409Y82841D01*
X323409Y86198D02*
X305211Y86198D01*
X305211Y95541D02*
X323409Y95541D01*
X305211Y95541D02*
X305211Y100039D01*
X323409Y100039D01*
X323409Y95541D01*
X323409Y98898D02*
X305211Y98898D01*
X305211Y108241D02*
X323409Y108241D01*
X305211Y108241D02*
X305211Y112739D01*
X323409Y112739D01*
X323409Y108241D01*
X323409Y111598D02*
X305211Y111598D01*
X305211Y120941D02*
X323409Y120941D01*
X305211Y120941D02*
X305211Y125439D01*
X323409Y125439D01*
X323409Y120941D01*
X323409Y124298D02*
X305211Y124298D01*
X305211Y133641D02*
X323409Y133641D01*
X305211Y133641D02*
X305211Y138139D01*
X323409Y138139D01*
X323409Y133641D01*
X323409Y136998D02*
X305211Y136998D01*
X305211Y146341D02*
X323409Y146341D01*
X305211Y146341D02*
X305211Y150839D01*
X323409Y150839D01*
X323409Y146341D01*
X323409Y149698D02*
X305211Y149698D01*
X305211Y159041D02*
X323409Y159041D01*
X305211Y159041D02*
X305211Y163539D01*
X323409Y163539D01*
X323409Y159041D01*
X323409Y162398D02*
X305211Y162398D01*
X273909Y-26379D02*
X255711Y-26379D01*
X255711Y-21881D01*
X273909Y-21881D01*
X273909Y-26379D01*
X273909Y-23022D02*
X255711Y-23022D01*
X255711Y-39079D02*
X273909Y-39079D01*
X255711Y-39079D02*
X255711Y-34581D01*
X273909Y-34581D01*
X273909Y-39079D01*
X273909Y-35722D02*
X255711Y-35722D01*
X255711Y-51779D02*
X273909Y-51779D01*
X255711Y-51779D02*
X255711Y-47281D01*
X273909Y-47281D01*
X273909Y-51779D01*
X273909Y-48422D02*
X255711Y-48422D01*
X255711Y-64479D02*
X273909Y-64479D01*
X255711Y-64479D02*
X255711Y-59981D01*
X273909Y-59981D01*
X273909Y-64479D01*
X273909Y-61122D02*
X255711Y-61122D01*
X255711Y-77179D02*
X273909Y-77179D01*
X255711Y-77179D02*
X255711Y-72681D01*
X273909Y-72681D01*
X273909Y-77179D01*
X273909Y-73822D02*
X255711Y-73822D01*
X255711Y-89879D02*
X273909Y-89879D01*
X255711Y-89879D02*
X255711Y-85381D01*
X273909Y-85381D01*
X273909Y-89879D01*
X273909Y-86522D02*
X255711Y-86522D01*
X255711Y-102579D02*
X273909Y-102579D01*
X255711Y-102579D02*
X255711Y-98081D01*
X273909Y-98081D01*
X273909Y-102579D01*
X273909Y-99222D02*
X255711Y-99222D01*
X255711Y-115279D02*
X273909Y-115279D01*
X255711Y-115279D02*
X255711Y-110781D01*
X273909Y-110781D01*
X273909Y-115279D01*
X273909Y-111922D02*
X255711Y-111922D01*
X305211Y-115279D02*
X323409Y-115279D01*
X305211Y-115279D02*
X305211Y-110781D01*
X323409Y-110781D01*
X323409Y-115279D01*
X323409Y-111922D02*
X305211Y-111922D01*
X305211Y-102579D02*
X323409Y-102579D01*
X305211Y-102579D02*
X305211Y-98081D01*
X323409Y-98081D01*
X323409Y-102579D01*
X323409Y-99222D02*
X305211Y-99222D01*
X305211Y-89879D02*
X323409Y-89879D01*
X305211Y-89879D02*
X305211Y-85381D01*
X323409Y-85381D01*
X323409Y-89879D01*
X323409Y-86522D02*
X305211Y-86522D01*
X305211Y-77179D02*
X323409Y-77179D01*
X305211Y-77179D02*
X305211Y-72681D01*
X323409Y-72681D01*
X323409Y-77179D01*
X323409Y-73822D02*
X305211Y-73822D01*
X305211Y-64479D02*
X323409Y-64479D01*
X305211Y-64479D02*
X305211Y-59981D01*
X323409Y-59981D01*
X323409Y-64479D01*
X323409Y-61122D02*
X305211Y-61122D01*
X305211Y-51779D02*
X323409Y-51779D01*
X305211Y-51779D02*
X305211Y-47281D01*
X323409Y-47281D01*
X323409Y-51779D01*
X323409Y-48422D02*
X305211Y-48422D01*
X305211Y-39079D02*
X323409Y-39079D01*
X305211Y-39079D02*
X305211Y-34581D01*
X323409Y-34581D01*
X323409Y-39079D01*
X323409Y-35722D02*
X305211Y-35722D01*
X305211Y-26379D02*
X323409Y-26379D01*
X305211Y-26379D02*
X305211Y-21881D01*
X323409Y-21881D01*
X323409Y-26379D01*
X323409Y-23022D02*
X305211Y-23022D01*
D29*
X988916Y1052220D03*
X988916Y1071220D03*
X967916Y1061720D03*
D13*
X556768Y1118244D03*
X556768Y1135244D03*
X701548Y556124D03*
X701548Y539124D03*
D16*
X736972Y539496D03*
X719972Y539496D03*
D30*
X997712Y321616D03*
X997712Y330656D03*
D31*
X1015544Y330200D03*
X1024584Y330200D03*
X1015544Y344424D03*
X1024584Y344424D03*
D13*
X532892Y1118244D03*
X532892Y1135244D03*
D30*
X990092Y-67004D03*
X990092Y-57964D03*
D31*
X1007924Y-58420D03*
X1016964Y-58420D03*
X1007924Y-44196D03*
X1016964Y-44196D03*
D16*
X1074048Y576580D03*
X1091048Y576580D03*
X1028328Y576072D03*
X1045328Y576072D03*
X1049156Y168148D03*
X1066156Y168148D03*
X1003944Y167640D03*
X1020944Y167640D03*
X824348Y595884D03*
X807348Y595884D03*
X626228Y469392D03*
X609228Y469392D03*
D13*
X507492Y1119260D03*
X507492Y1136260D03*
D10*
X721360Y612060D03*
X721360Y602060D03*
D30*
X1006856Y753924D03*
X1006856Y762964D03*
D31*
X1025196Y762508D03*
X1034236Y762508D03*
X1025196Y776732D03*
X1034236Y776732D03*
D32*
X1229360Y1151128D02*
X1244600Y1151128D01*
X1244600Y1176528D02*
X1229360Y1176528D01*
X1229360Y1201928D02*
X1244600Y1201928D01*
X1244600Y974852D02*
X1229360Y974852D01*
X1229360Y1000252D02*
X1244600Y1000252D01*
X1244600Y1025652D02*
X1229360Y1025652D01*
X1229360Y798576D02*
X1244600Y798576D01*
X1244600Y823976D02*
X1229360Y823976D01*
X1229360Y849376D02*
X1244600Y849376D01*
X1244600Y622300D02*
X1229360Y622300D01*
X1229360Y647700D02*
X1244600Y647700D01*
X1244600Y673100D02*
X1229360Y673100D01*
X1229360Y446024D02*
X1244600Y446024D01*
X1244600Y471424D02*
X1229360Y471424D01*
X1229360Y496824D02*
X1244600Y496824D01*
X1244600Y269748D02*
X1229360Y269748D01*
X1229360Y295148D02*
X1244600Y295148D01*
X1244600Y320548D02*
X1229360Y320548D01*
X1229360Y93472D02*
X1244600Y93472D01*
X1244600Y118872D02*
X1229360Y118872D01*
X1229360Y144272D02*
X1244600Y144272D01*
X1244600Y-82804D02*
X1229360Y-82804D01*
X1229360Y-57404D02*
X1244600Y-57404D01*
X1244600Y-32004D02*
X1229360Y-32004D01*
D33*
X1026160Y1290320D03*
X1000760Y1290320D03*
X975360Y1290320D03*
X949960Y1290320D03*
X924560Y1290320D03*
X899160Y1290320D03*
X1026160Y1264920D03*
X1000760Y1264920D03*
X975360Y1264920D03*
X949960Y1264920D03*
X924560Y1264920D03*
X899160Y1264920D03*
X873760Y1290320D03*
X873760Y1264920D03*
X848360Y1290320D03*
X822960Y1290320D03*
X797560Y1290320D03*
X772160Y1290320D03*
X746760Y1290320D03*
X721360Y1290320D03*
X848360Y1264920D03*
X822960Y1264920D03*
X797560Y1264920D03*
X772160Y1264920D03*
X746760Y1264920D03*
X721360Y1264920D03*
X695960Y1290320D03*
X695960Y1264920D03*
X670560Y1290320D03*
X645160Y1290320D03*
X619760Y1290320D03*
X594360Y1290320D03*
X568960Y1290320D03*
X543560Y1290320D03*
X670560Y1264920D03*
X645160Y1264920D03*
X619760Y1264920D03*
X594360Y1264920D03*
X568960Y1264920D03*
X543560Y1264920D03*
D34*
X680212Y55372D03*
D33*
X654812Y55372D03*
X629412Y55372D03*
X680212Y29972D03*
X654812Y29972D03*
X629412Y29972D03*
D35*
X1067946Y734156D03*
X1067946Y738156D03*
X1067946Y742156D03*
X1067946Y746156D03*
X1052446Y746156D03*
X1052446Y742156D03*
X1052446Y738156D03*
X1052446Y734156D03*
D36*
X1060196Y746636D03*
D37*
X734168Y-65024D03*
X684168Y-65024D03*
D38*
X764168Y-115024D03*
X654168Y-115024D03*
X654168Y-165024D03*
X764168Y-165024D03*
D39*
X759134Y727524D02*
X759134Y734112D01*
X759922Y734112D01*
X759922Y727524D01*
X759134Y727524D01*
X759134Y731177D02*
X759922Y731177D01*
X754134Y734112D02*
X754134Y727524D01*
X754134Y734112D02*
X754922Y734112D01*
X754922Y727524D01*
X754134Y727524D01*
X754134Y731177D02*
X754922Y731177D01*
X749134Y734112D02*
X749134Y727524D01*
X749134Y734112D02*
X749922Y734112D01*
X749922Y727524D01*
X749134Y727524D01*
X749134Y731177D02*
X749922Y731177D01*
X744134Y734112D02*
X744134Y727524D01*
X744134Y734112D02*
X744922Y734112D01*
X744922Y727524D01*
X744134Y727524D01*
X744134Y731177D02*
X744922Y731177D01*
X739134Y734112D02*
X739134Y727524D01*
X739134Y734112D02*
X739922Y734112D01*
X739922Y727524D01*
X739134Y727524D01*
X739134Y731177D02*
X739922Y731177D01*
X734134Y734112D02*
X734134Y727524D01*
X734134Y734112D02*
X734922Y734112D01*
X734922Y727524D01*
X734134Y727524D01*
X734134Y731177D02*
X734922Y731177D01*
X729134Y734112D02*
X729134Y727524D01*
X729134Y734112D02*
X729922Y734112D01*
X729922Y727524D01*
X729134Y727524D01*
X729134Y731177D02*
X729922Y731177D01*
X724134Y734112D02*
X724134Y727524D01*
X724134Y734112D02*
X724922Y734112D01*
X724922Y727524D01*
X724134Y727524D01*
X724134Y731177D02*
X724922Y731177D01*
X719134Y734112D02*
X719134Y727524D01*
X719134Y734112D02*
X719922Y734112D01*
X719922Y727524D01*
X719134Y727524D01*
X719134Y731177D02*
X719922Y731177D01*
X714134Y734112D02*
X714134Y727524D01*
X714134Y734112D02*
X714922Y734112D01*
X714922Y727524D01*
X714134Y727524D01*
X714134Y731177D02*
X714922Y731177D01*
X709134Y734112D02*
X709134Y727524D01*
X709134Y734112D02*
X709922Y734112D01*
X709922Y727524D01*
X709134Y727524D01*
X709134Y731177D02*
X709922Y731177D01*
X704134Y734112D02*
X704134Y727524D01*
X704134Y734112D02*
X704922Y734112D01*
X704922Y727524D01*
X704134Y727524D01*
X704134Y731177D02*
X704922Y731177D01*
X700972Y723574D02*
X694384Y723574D01*
X694384Y724362D01*
X700972Y724362D01*
X700972Y723574D01*
X700972Y718574D02*
X694384Y718574D01*
X694384Y719362D01*
X700972Y719362D01*
X700972Y718574D01*
X700972Y713574D02*
X694384Y713574D01*
X694384Y714362D01*
X700972Y714362D01*
X700972Y713574D01*
X700972Y708574D02*
X694384Y708574D01*
X694384Y709362D01*
X700972Y709362D01*
X700972Y708574D01*
X700972Y703574D02*
X694384Y703574D01*
X694384Y704362D01*
X700972Y704362D01*
X700972Y703574D01*
X700972Y698574D02*
X694384Y698574D01*
X694384Y699362D01*
X700972Y699362D01*
X700972Y698574D01*
X700972Y693574D02*
X694384Y693574D01*
X694384Y694362D01*
X700972Y694362D01*
X700972Y693574D01*
X700972Y688574D02*
X694384Y688574D01*
X694384Y689362D01*
X700972Y689362D01*
X700972Y688574D01*
X700972Y683574D02*
X694384Y683574D01*
X694384Y684362D01*
X700972Y684362D01*
X700972Y683574D01*
X700972Y678574D02*
X694384Y678574D01*
X694384Y679362D01*
X700972Y679362D01*
X700972Y678574D01*
X700972Y673574D02*
X694384Y673574D01*
X694384Y674362D01*
X700972Y674362D01*
X700972Y673574D01*
X700972Y668574D02*
X694384Y668574D01*
X694384Y669362D01*
X700972Y669362D01*
X700972Y668574D01*
X704922Y665412D02*
X704922Y658824D01*
X704134Y658824D01*
X704134Y665412D01*
X704922Y665412D01*
X704922Y662477D02*
X704134Y662477D01*
X709922Y665412D02*
X709922Y658824D01*
X709134Y658824D01*
X709134Y665412D01*
X709922Y665412D01*
X709922Y662477D02*
X709134Y662477D01*
X714922Y665412D02*
X714922Y658824D01*
X714134Y658824D01*
X714134Y665412D01*
X714922Y665412D01*
X714922Y662477D02*
X714134Y662477D01*
X719922Y665412D02*
X719922Y658824D01*
X719134Y658824D01*
X719134Y665412D01*
X719922Y665412D01*
X719922Y662477D02*
X719134Y662477D01*
X724922Y665412D02*
X724922Y658824D01*
X724134Y658824D01*
X724134Y665412D01*
X724922Y665412D01*
X724922Y662477D02*
X724134Y662477D01*
X729922Y665412D02*
X729922Y658824D01*
X729134Y658824D01*
X729134Y665412D01*
X729922Y665412D01*
X729922Y662477D02*
X729134Y662477D01*
X734922Y665412D02*
X734922Y658824D01*
X734134Y658824D01*
X734134Y665412D01*
X734922Y665412D01*
X734922Y662477D02*
X734134Y662477D01*
X739922Y665412D02*
X739922Y658824D01*
X739134Y658824D01*
X739134Y665412D01*
X739922Y665412D01*
X739922Y662477D02*
X739134Y662477D01*
X744922Y665412D02*
X744922Y658824D01*
X744134Y658824D01*
X744134Y665412D01*
X744922Y665412D01*
X744922Y662477D02*
X744134Y662477D01*
X749922Y665412D02*
X749922Y658824D01*
X749134Y658824D01*
X749134Y665412D01*
X749922Y665412D01*
X749922Y662477D02*
X749134Y662477D01*
X754922Y665412D02*
X754922Y658824D01*
X754134Y658824D01*
X754134Y665412D01*
X754922Y665412D01*
X754922Y662477D02*
X754134Y662477D01*
X759922Y665412D02*
X759922Y658824D01*
X759134Y658824D01*
X759134Y665412D01*
X759922Y665412D01*
X759922Y662477D02*
X759134Y662477D01*
X763084Y669362D02*
X769672Y669362D01*
X769672Y668574D01*
X763084Y668574D01*
X763084Y669362D01*
X763084Y674362D02*
X769672Y674362D01*
X769672Y673574D01*
X763084Y673574D01*
X763084Y674362D01*
X763084Y679362D02*
X769672Y679362D01*
X769672Y678574D01*
X763084Y678574D01*
X763084Y679362D01*
X763084Y684362D02*
X769672Y684362D01*
X769672Y683574D01*
X763084Y683574D01*
X763084Y684362D01*
X763084Y689362D02*
X769672Y689362D01*
X769672Y688574D01*
X763084Y688574D01*
X763084Y689362D01*
X763084Y694362D02*
X769672Y694362D01*
X769672Y693574D01*
X763084Y693574D01*
X763084Y694362D01*
X763084Y699362D02*
X769672Y699362D01*
X769672Y698574D01*
X763084Y698574D01*
X763084Y699362D01*
X763084Y704362D02*
X769672Y704362D01*
X769672Y703574D01*
X763084Y703574D01*
X763084Y704362D01*
X763084Y709362D02*
X769672Y709362D01*
X769672Y708574D01*
X763084Y708574D01*
X763084Y709362D01*
X763084Y714362D02*
X769672Y714362D01*
X769672Y713574D01*
X763084Y713574D01*
X763084Y714362D01*
X763084Y719362D02*
X769672Y719362D01*
X769672Y718574D01*
X763084Y718574D01*
X763084Y719362D01*
X763084Y724362D02*
X769672Y724362D01*
X769672Y723574D01*
X763084Y723574D01*
X763084Y724362D01*
D40*
X732028Y696468D03*
D41*
X815975Y527558D03*
X815975Y540258D03*
X815975Y552958D03*
X815975Y565658D03*
X761873Y565658D03*
X761873Y552958D03*
X761873Y540258D03*
X761873Y527558D03*
D35*
X1058294Y301848D03*
X1058294Y305848D03*
X1058294Y309848D03*
X1058294Y313848D03*
X1042794Y313848D03*
X1042794Y309848D03*
X1042794Y305848D03*
X1042794Y301848D03*
D36*
X1050544Y314328D03*
D42*
X968352Y1017168D03*
D43*
X974852Y1016268D02*
X974852Y1018068D01*
X981352Y1018068D02*
X981352Y1016268D01*
X981352Y1035268D02*
X981352Y1037068D01*
X974852Y1037068D02*
X974852Y1035268D01*
X968352Y1035268D02*
X968352Y1037068D01*
D35*
X1050674Y-86772D03*
X1050674Y-82772D03*
X1050674Y-78772D03*
X1050674Y-74772D03*
X1035174Y-74772D03*
X1035174Y-78772D03*
X1035174Y-82772D03*
X1035174Y-86772D03*
D36*
X1042924Y-74292D03*
D44*
X663296Y281940D03*
X653796Y281940D03*
X644296Y281940D03*
X644296Y256032D03*
X663296Y256032D03*
D45*
X645772Y326708D03*
X652272Y326708D03*
X658772Y326708D03*
X658772Y348933D03*
X645772Y348933D03*
D46*
X162560Y136640D03*
D47*
X162560Y97040D03*
D46*
X162560Y878320D03*
D47*
X162560Y838720D03*
D46*
X162560Y692900D03*
D47*
X162560Y653300D03*
D46*
X162560Y507480D03*
D47*
X162560Y467880D03*
D46*
X162560Y322060D03*
D47*
X162560Y282460D03*
D46*
X162560Y-48780D03*
D47*
X162560Y-88380D03*
D46*
X162560Y1249160D03*
D47*
X162560Y1209560D03*
D46*
X162560Y1063740D03*
D47*
X162560Y1024140D03*
D48*
X776870Y604414D03*
X776870Y622914D03*
X762370Y622914D03*
X762370Y604414D03*
D16*
X1021452Y1013968D03*
X1004452Y1013968D03*
X1021452Y1036828D03*
X1004452Y1036828D03*
D10*
X831088Y1136476D03*
X831088Y1146476D03*
D16*
X700160Y775716D03*
X717160Y775716D03*
D13*
X641096Y767960D03*
X641096Y750960D03*
D16*
X679568Y775716D03*
X662568Y775716D03*
D13*
X625348Y701920D03*
X625348Y684920D03*
D49*
X607568Y1113228D03*
X607568Y1138228D03*
D50*
X613270Y1070290D03*
X613270Y1093790D03*
X595770Y1093790D03*
X595770Y1070290D03*
D10*
X794004Y986108D03*
X794004Y996108D03*
X672164Y995680D03*
X682164Y995680D03*
X641096Y1037924D03*
X641096Y1047924D03*
X638556Y1137332D03*
X638556Y1127332D03*
X672672Y1179576D03*
X682672Y1179576D03*
D51*
X645668Y576072D03*
X645668Y550672D03*
X645668Y525272D03*
X645668Y499872D03*
X671068Y576072D03*
X671068Y550672D03*
X671068Y525272D03*
X671068Y499872D03*
D52*
X411480Y1222880D03*
X411480Y1174880D03*
X408940Y-75060D03*
X408940Y-123060D03*
X411480Y110360D03*
X411480Y62360D03*
X411480Y295780D03*
X411480Y247780D03*
X411480Y481200D03*
X411480Y433200D03*
X411480Y666620D03*
X411480Y618620D03*
X411480Y852040D03*
X411480Y804040D03*
X411480Y1037460D03*
X411480Y989460D03*
D13*
X605028Y1174868D03*
X605028Y1157868D03*
D21*
X583118Y1161088D02*
X576138Y1161088D01*
X583118Y1161088D02*
X583118Y1154108D01*
X576138Y1154108D01*
X576138Y1161088D01*
X576138Y1158908D02*
X583118Y1158908D01*
X583118Y1178628D02*
X576138Y1178628D01*
X583118Y1178628D02*
X583118Y1171648D01*
X576138Y1171648D01*
X576138Y1178628D01*
X576138Y1176448D02*
X583118Y1176448D01*
D53*
X544428Y1031117D03*
D54*
X543803Y1022992D03*
X543803Y1017992D03*
X543803Y1012992D03*
X543803Y1007992D03*
D53*
X544428Y999867D03*
X549428Y999867D03*
X554428Y999867D03*
X559428Y999867D03*
X564428Y999867D03*
X569428Y999867D03*
X574428Y999867D03*
X579428Y999867D03*
X584428Y999867D03*
X589428Y999867D03*
D54*
X590053Y1007992D03*
X590053Y1012992D03*
X590053Y1017992D03*
X590053Y1022992D03*
D53*
X589428Y1031117D03*
X584428Y1031117D03*
X579428Y1031117D03*
X574428Y1031117D03*
X569428Y1031117D03*
X564428Y1031117D03*
X559428Y1031117D03*
X554428Y1031117D03*
X549428Y1031117D03*
D10*
X603504Y1023192D03*
X603504Y1033192D03*
X588184Y1042924D03*
X578184Y1042924D03*
D55*
X164338Y-164338D03*
X1220216Y-164338D03*
X164338Y1325372D03*
X1220216Y1325372D03*
D10*
X539830Y1053592D03*
X549830Y1053592D03*
X539576Y1043940D03*
X549576Y1043940D03*
X523240Y1007952D03*
X523240Y1017952D03*
X532384Y1001348D03*
X532384Y1011348D03*
X560832Y977980D03*
X560832Y987980D03*
D16*
X632070Y256540D03*
X615070Y256540D03*
X672220Y349250D03*
X689220Y349250D03*
X658740Y972820D03*
X641740Y972820D03*
X658740Y955040D03*
X641740Y955040D03*
D10*
X652700Y988060D03*
X642700Y988060D03*
D30*
X624840Y322124D03*
X624840Y331164D03*
D10*
X746760Y1213024D03*
X746760Y1203024D03*
X721360Y1213024D03*
X721360Y1203024D03*
X669544Y1203532D03*
X669544Y1213532D03*
D56*
X686816Y693928D03*
X663194Y787146D03*
X692404Y1025652D03*
X685546Y685064D03*
X701040Y998220D03*
X608584Y685292D03*
X641096Y685292D03*
X607568Y956056D03*
X703326Y959104D03*
X728980Y788416D03*
X716280Y989076D03*
X731520Y743712D03*
X680401Y699008D03*
X667766Y748538D03*
X691388Y981456D03*
X678180Y817880D03*
D57*
X673608Y1052576D03*
D56*
X691388Y1179576D03*
X799592Y1143000D03*
X794766Y748030D03*
X762000Y756920D03*
X661924Y995172D03*
X704088Y1155192D03*
X700024Y637032D03*
X674624Y647192D03*
X699008Y625856D03*
X758190Y635254D03*
X669544Y700532D03*
X683006Y310642D03*
X591566Y303276D03*
X654050Y294386D03*
X785876Y622808D03*
X822452Y575056D03*
X676148Y365252D03*
X652526Y337058D03*
X624332Y1093724D03*
X641096Y1030224D03*
X572516Y1138428D03*
X638048Y1146048D03*
X1012952Y777240D03*
X1021588Y999236D03*
X960120Y1123696D03*
X1016508Y362712D03*
X678434Y1155446D03*
X572008Y1113028D03*
X595884Y1050544D03*
X584200Y1070864D03*
X571500Y1083056D03*
X678180Y1021588D03*
X801624Y985520D03*
X791210Y1021588D03*
X838897Y1137412D03*
X634746Y237236D03*
X555752Y1104900D03*
X532384Y1104900D03*
X507238Y1105662D03*
X747268Y506476D03*
D57*
X256032Y1318260D03*
X272288Y1318260D03*
X290068Y1318260D03*
X308356Y1317752D03*
X256032Y1302004D03*
X272288Y1302004D03*
X290068Y1302512D03*
X308356Y1300988D03*
X256540Y1285748D03*
X271780Y1286256D03*
X289560Y1286256D03*
X308864Y1286256D03*
X262636Y-144272D03*
X278892Y-144272D03*
X296672Y-144272D03*
X314960Y-144272D03*
X263144Y-160020D03*
X278892Y-160020D03*
X296672Y-160020D03*
X314960Y-160020D03*
X263144Y-126492D03*
X278892Y-126492D03*
X296672Y-126492D03*
X314960Y-126492D03*
X262636Y6096D03*
X278892Y6096D03*
X296672Y6096D03*
X314960Y6096D03*
X263144Y-9652D03*
X278892Y-9652D03*
X296672Y-9652D03*
X314960Y-9652D03*
X262636Y57404D03*
X278892Y57404D03*
X296672Y57404D03*
X314960Y57404D03*
X262636Y41148D03*
X278892Y41148D03*
X296672Y41148D03*
X314960Y41148D03*
X263144Y23876D03*
X278892Y23876D03*
X296672Y23876D03*
X314960Y23876D03*
X262636Y194056D03*
X278892Y194056D03*
X296672Y194056D03*
X314960Y194056D03*
X263144Y178308D03*
X278892Y178308D03*
X296672Y178308D03*
X314960Y178308D03*
X262636Y245364D03*
X278892Y245364D03*
X296672Y245364D03*
X314960Y245364D03*
X262636Y229108D03*
X278892Y229108D03*
X296672Y229108D03*
X314960Y229108D03*
X263144Y211836D03*
X278892Y211836D03*
X296672Y211836D03*
X314960Y211836D03*
X260604Y1171448D03*
X276860Y1171448D03*
X294640Y1171448D03*
X312928Y1171448D03*
X260604Y1155192D03*
X276860Y1155192D03*
X294640Y1155192D03*
X312928Y1155192D03*
X261112Y1137920D03*
X276860Y1137920D03*
X294640Y1137920D03*
X312928Y1137920D03*
X260604Y1120140D03*
X276860Y1120140D03*
X294640Y1120140D03*
X312928Y1120140D03*
X261112Y1104392D03*
X276860Y1104392D03*
X294640Y1104392D03*
X312928Y1104392D03*
X261620Y983996D03*
X277876Y983996D03*
X295656Y983996D03*
X313944Y983996D03*
X261620Y967740D03*
X277876Y967740D03*
X295656Y967740D03*
X313944Y967740D03*
X262128Y950468D03*
X277876Y950468D03*
X295656Y950468D03*
X313944Y950468D03*
X261620Y932688D03*
X277876Y932688D03*
X295656Y932688D03*
X313944Y932688D03*
X262128Y916940D03*
X277876Y916940D03*
X295656Y916940D03*
X313944Y916940D03*
X315468Y782828D03*
X299212Y782828D03*
X281432Y782828D03*
X263144Y782828D03*
X314960Y798576D03*
X299212Y798576D03*
X281432Y798576D03*
X263144Y798576D03*
X315468Y731520D03*
X299212Y731520D03*
X281432Y731520D03*
X263144Y731520D03*
X315468Y747776D03*
X299212Y747776D03*
X281432Y747776D03*
X263144Y747776D03*
X314960Y765048D03*
X299212Y765048D03*
X281432Y765048D03*
X263144Y765048D03*
X262128Y376936D03*
X278384Y376936D03*
X296164Y376936D03*
X314452Y376936D03*
X262636Y361188D03*
X278384Y361188D03*
X296164Y361188D03*
X314452Y361188D03*
X262128Y428244D03*
X278384Y428244D03*
X296164Y428244D03*
X314452Y428244D03*
X262128Y411988D03*
X278384Y411988D03*
X296164Y411988D03*
X314452Y411988D03*
X262636Y394716D03*
X278384Y394716D03*
X296164Y394716D03*
X314452Y394716D03*
X261620Y614172D03*
X277876Y614172D03*
X295656Y614172D03*
X313944Y614172D03*
X261620Y597916D03*
X277876Y597916D03*
X295656Y597916D03*
X313944Y597916D03*
X262128Y580644D03*
X277876Y580644D03*
X295656Y580644D03*
X313944Y580644D03*
X261620Y562864D03*
X277876Y562864D03*
X295656Y562864D03*
X313944Y562864D03*
X262128Y547116D03*
X277876Y547116D03*
X295656Y547116D03*
X313944Y547116D03*
X1148080Y-58420D03*
X1148080Y-33020D03*
X1148080Y-12700D03*
X1127760Y-12700D03*
X1127760Y-33020D03*
X1104900Y-12700D03*
X1104900Y-33020D03*
X1084580Y-33020D03*
X1084580Y-12700D03*
X1064260Y-12700D03*
X1064260Y-33020D03*
X1043940Y-12700D03*
X1043940Y-33020D03*
X1021080Y-12700D03*
X1021080Y-33020D03*
X998220Y-33020D03*
X998220Y-12700D03*
X977900Y-12700D03*
X977900Y-33020D03*
X1149096Y358140D03*
X1149096Y378460D03*
X1130300Y378460D03*
X1130300Y358140D03*
X1107440Y378460D03*
X1107440Y358140D03*
X1087120Y358140D03*
X1087120Y378460D03*
X1066800Y378460D03*
X1066800Y358140D03*
X1046480Y378460D03*
X1046480Y358140D03*
X1023620Y378460D03*
X1023620Y358140D03*
X1000760Y358140D03*
X1000760Y378460D03*
X980440Y378460D03*
X980440Y358140D03*
X1163320Y789940D03*
X1163320Y810260D03*
X1143000Y810260D03*
X1143000Y789940D03*
X1120140Y810260D03*
X1120140Y789940D03*
X1099820Y789940D03*
X1099820Y810260D03*
X1079500Y810260D03*
X1079500Y789940D03*
X1059180Y810260D03*
X1059180Y789940D03*
X1036320Y810260D03*
X1036320Y789940D03*
X1013460Y789940D03*
X1013460Y810260D03*
X993140Y810260D03*
X993140Y789940D03*
X977900Y-53340D03*
X977900Y-73660D03*
X977900Y-96520D03*
X995680Y-96520D03*
X995680Y-116840D03*
X977900Y-116840D03*
X995680Y-134620D03*
X977900Y-134620D03*
X1013460Y-170180D03*
X1013460Y-152400D03*
X995680Y-152400D03*
X977900Y-152400D03*
X977900Y-170180D03*
X995680Y-170180D03*
X993140Y769620D03*
X993140Y749300D03*
X993140Y726440D03*
X1010920Y726440D03*
X1010920Y706120D03*
X993140Y706120D03*
X1010920Y688340D03*
X993140Y688340D03*
X1028700Y652780D03*
X1028700Y670560D03*
X1010920Y670560D03*
X993140Y670560D03*
X993140Y652780D03*
X1010920Y652780D03*
X980440Y335280D03*
X980440Y314960D03*
X980440Y292100D03*
X998220Y292100D03*
X998220Y271780D03*
X980440Y271780D03*
X998220Y254000D03*
X980440Y254000D03*
X1016000Y218440D03*
X1016000Y236220D03*
X998220Y236220D03*
X980440Y236220D03*
X980440Y218440D03*
X998220Y218440D03*
X394208Y-112268D03*
X393700Y-128524D03*
X393700Y-145288D03*
X393700Y-162052D03*
X421640Y-112776D03*
X422148Y-128016D03*
X421640Y-145288D03*
X422148Y-162052D03*
X439420Y-112776D03*
X458216Y-113284D03*
X457708Y-129540D03*
X439420Y-128016D03*
X439928Y-144780D03*
X457708Y-145796D03*
X457708Y-162560D03*
X440436Y-162560D03*
X396748Y72136D03*
X396240Y55880D03*
X396240Y39116D03*
X396240Y22352D03*
X424180Y71628D03*
X424688Y56388D03*
X424180Y39116D03*
X424688Y22352D03*
X441960Y71628D03*
X460756Y71120D03*
X460248Y54864D03*
X441960Y56388D03*
X442468Y39624D03*
X460248Y38608D03*
X460248Y21844D03*
X442976Y21844D03*
X397256Y258572D03*
X396748Y242316D03*
X396748Y225552D03*
X396748Y208788D03*
X424688Y258064D03*
X425196Y242824D03*
X424688Y225552D03*
X425196Y208788D03*
X442468Y258064D03*
X461264Y257556D03*
X461264Y241300D03*
X442468Y242824D03*
X442976Y226060D03*
X460756Y225044D03*
X460756Y208280D03*
X443484Y208280D03*
X397764Y443992D03*
X397256Y427736D03*
X397256Y410972D03*
X397256Y394208D03*
X425196Y443484D03*
X425704Y428244D03*
X425196Y410972D03*
X425704Y394208D03*
X442976Y443484D03*
X461772Y442976D03*
X461264Y426720D03*
X442976Y428244D03*
X443484Y411480D03*
X461264Y410464D03*
X461264Y393700D03*
X443992Y393700D03*
X396748Y627888D03*
X396240Y611632D03*
X396240Y594868D03*
X396240Y578104D03*
X424180Y627380D03*
X424688Y612140D03*
X424180Y594868D03*
X424688Y578104D03*
X441960Y627380D03*
X460756Y626872D03*
X460248Y610616D03*
X441960Y612140D03*
X442468Y595376D03*
X460248Y594360D03*
X460248Y577596D03*
X442976Y577596D03*
X397764Y812800D03*
X397256Y796544D03*
X397256Y779780D03*
X397256Y763016D03*
X425196Y812292D03*
X425704Y797052D03*
X425196Y779780D03*
X425704Y763016D03*
X442976Y812292D03*
X461772Y811784D03*
X461264Y795528D03*
X442976Y797052D03*
X443484Y780288D03*
X461264Y779272D03*
X461264Y762508D03*
X443992Y762508D03*
X396748Y998220D03*
X396240Y981964D03*
X396240Y965200D03*
X396240Y948436D03*
X424180Y997712D03*
X424688Y982472D03*
X424180Y965200D03*
X424688Y948436D03*
X441960Y997712D03*
X460756Y997204D03*
X460248Y980948D03*
X441960Y982472D03*
X442468Y965708D03*
X460248Y964692D03*
X460248Y947928D03*
X442976Y947928D03*
X397256Y1185164D03*
X396748Y1168908D03*
X396748Y1152144D03*
X396748Y1135380D03*
X424688Y1184656D03*
X425196Y1169416D03*
X424688Y1152144D03*
X425196Y1135380D03*
X442468Y1184656D03*
X461264Y1184148D03*
X460756Y1167892D03*
X442468Y1169416D03*
X442976Y1152652D03*
X460756Y1151636D03*
X460756Y1134872D03*
X443484Y1134872D03*
D58*
X1108710Y34290D03*
X985520Y55880D03*
X1137412Y581660D03*
X1013460Y576072D03*
X1012698Y465074D03*
X1041908Y1016000D03*
X1024636Y943864D03*
X998220Y883920D03*
X982472Y168656D03*
D57*
X500380Y1294892D03*
X494284Y1123696D03*
X499364Y931672D03*
X501142Y740410D03*
X504190Y554482D03*
X517652Y388084D03*
X496316Y208280D03*
X507492Y-5080D03*
X615188Y1175004D03*
X523212Y999744D03*
X544576Y990092D03*
X551688Y978408D03*
X598424Y1007900D03*
X720852Y705612D03*
X741426Y705612D03*
X721614Y685038D03*
X741426Y685038D03*
X598170Y256540D03*
X643890Y996950D03*
X689610Y339090D03*
X598424Y996696D03*
X534924Y1026160D03*
X530860Y1042416D03*
X531423Y1053112D03*
X564388Y1039180D03*
D56*
X736346Y1056894D03*
X769620Y1062228D03*
X790448Y1063752D03*
X813308Y1019048D03*
X724408Y1024636D03*
D57*
X729234Y1192530D03*
D56*
X916940Y1061720D03*
X813816Y1005840D03*
X796290Y1077722D03*
X808228Y1233932D03*
X230124Y1245108D03*
X909828Y1222756D03*
X910336Y1082548D03*
X391922Y1199134D03*
X891540Y1202944D03*
X890524Y1096264D03*
X395478Y1019302D03*
X833120Y1032256D03*
X833120Y1092200D03*
X224028Y875284D03*
X874268Y898144D03*
X874268Y1106932D03*
X379476Y827532D03*
X861568Y881380D03*
X859536Y1098804D03*
X384048Y643128D03*
X560832Y654812D03*
X561340Y852932D03*
X836676Y854456D03*
X837184Y1103376D03*
X230632Y657860D03*
X554736Y663448D03*
X556260Y862076D03*
X848360Y864108D03*
X845312Y1124712D03*
X217932Y502412D03*
X567436Y511556D03*
X568960Y950976D03*
X705612Y947928D03*
X218186Y473202D03*
X576072Y472440D03*
X575564Y941324D03*
X724408Y939800D03*
X724408Y986282D03*
X386588Y455930D03*
X583184Y456692D03*
X586232Y933196D03*
X742696Y931672D03*
X231648Y319532D03*
X589788Y329184D03*
X592836Y839724D03*
X738886Y840486D03*
X736600Y985520D03*
X232664Y286004D03*
X599948Y290068D03*
X600710Y831850D03*
X732536Y833120D03*
X733298Y996442D03*
X381762Y276606D03*
X723138Y287782D03*
X658876Y807212D03*
X762000Y809752D03*
X758952Y935736D03*
X230632Y134112D03*
X814832Y141732D03*
X824484Y941832D03*
X231902Y101854D03*
X811276Y104648D03*
X830580Y927608D03*
X378460Y96520D03*
X805688Y93472D03*
X816864Y949960D03*
X387350Y-97282D03*
X516128Y-97028D03*
X767334Y983234D03*
X229616Y-53340D03*
X799592Y9144D03*
X810006Y965454D03*
X229616Y-84328D03*
X780796Y-28956D03*
X803910Y957834D03*
X229870Y1213866D03*
X900176Y1212596D03*
X899668Y1092708D03*
X227584Y1060704D03*
X891145Y1039255D03*
X890016Y1065276D03*
X228092Y1028700D03*
X879856Y1033272D03*
X904748Y1071880D03*
X935736Y1053592D03*
X924052Y1044448D03*
X671068Y1083564D03*
X998728Y1131824D03*
X230124Y686816D03*
X546862Y696722D03*
X561594Y964438D03*
X851154Y974598D03*
X852170Y1118870D03*
X223520Y846328D03*
X867664Y892048D03*
X865124Y1113028D03*
X804672Y1159256D03*
X1019302Y1198118D03*
X806196Y1176020D03*
X1018032Y1176528D03*
X697230Y990346D03*
X717804Y757936D03*
X708152Y926084D03*
X710504Y965406D03*
X725197Y751105D03*
D57*
X678180Y965200D03*
D56*
X663448Y1180084D03*
X682244Y986536D03*
X747776Y636016D03*
X762254Y594614D03*
X663956Y683260D03*
X664464Y665988D03*
X779272Y756920D03*
X679704Y236220D03*
X702564Y526288D03*
X794258Y573278D03*
X959358Y1208786D03*
X629412Y1127252D03*
X633476Y1049528D03*
X801624Y996696D03*
D57*
X736600Y525780D03*
X591058Y1175258D03*
X523212Y1026160D03*
X603504Y1044448D03*
X578104Y1051024D03*
X533372Y993168D03*
X839470Y1148080D03*
X631190Y981710D03*
X558292Y1052068D03*
X609092Y458724D03*
D56*
X786892Y698500D03*
X785876Y686816D03*
X684784Y658876D03*
D57*
X709704Y647783D03*
D56*
X734568Y643128D03*
X856488Y642620D03*
X751332Y652272D03*
X849376Y651256D03*
X799084Y664972D03*
X780288Y151892D03*
X786384Y677672D03*
X840994Y677926D03*
X754380Y743204D03*
X753364Y1229868D03*
D57*
X1069848Y-67564D03*
D56*
X786384Y708660D03*
X783336Y1240536D03*
X690372Y744728D03*
X685800Y926084D03*
X515112Y925576D03*
X692912Y755904D03*
X694944Y905256D03*
X508508Y905764D03*
X713204Y744249D03*
X691896Y604520D03*
X532384Y609092D03*
X746252Y744503D03*
X740156Y610616D03*
X538480Y623824D03*
X762508Y745744D03*
X756666Y439166D03*
X559816Y441452D03*
X792480Y734060D03*
X777748Y496824D03*
X570484Y447548D03*
X799592Y719836D03*
X786892Y378460D03*
X779780Y714248D03*
X764286Y359156D03*
X732028Y625856D03*
X735330Y157226D03*
X718312Y648208D03*
X726186Y184150D03*
X700024Y645160D03*
X715772Y-27432D03*
X653796Y657860D03*
X705612Y-13716D03*
X701011Y753393D03*
X702056Y910336D03*
X707644Y762791D03*
X698500Y919988D03*
D57*
X1078484Y321056D03*
X130048Y837692D03*
X130556Y813816D03*
X162560Y811784D03*
X238760Y826008D03*
X197104Y826516D03*
X216408Y826516D03*
X190500Y812292D03*
X335280Y827532D03*
X358648Y826516D03*
X336296Y803656D03*
X359664Y804672D03*
X360172Y779272D03*
X335788Y779272D03*
X130556Y901192D03*
X131064Y877316D03*
X236220Y893064D03*
X218440Y893572D03*
X189484Y902716D03*
X199644Y891032D03*
X161544Y903224D03*
X337820Y894588D03*
X358140Y895096D03*
X336296Y941324D03*
X357632Y941832D03*
X337312Y917448D03*
X357632Y917956D03*
X130048Y652780D03*
X130556Y628904D03*
X162560Y626872D03*
X238760Y641096D03*
X197104Y641604D03*
X216408Y641604D03*
X190500Y627380D03*
X335788Y644144D03*
X359156Y643128D03*
X336804Y620268D03*
X360172Y621284D03*
X360680Y595884D03*
X336296Y595884D03*
X131572Y715264D03*
X132080Y691388D03*
X237236Y707136D03*
X219456Y707644D03*
X190500Y716788D03*
X200660Y705104D03*
X162560Y717296D03*
X337312Y708660D03*
X357632Y709168D03*
X335788Y755396D03*
X357124Y755904D03*
X336804Y731520D03*
X357124Y732028D03*
X131064Y466852D03*
X131572Y442976D03*
X163576Y440944D03*
X239776Y455168D03*
X198120Y455676D03*
X217424Y455676D03*
X191516Y441452D03*
X335788Y458216D03*
X359156Y457200D03*
X336804Y434340D03*
X360172Y435356D03*
X360680Y409956D03*
X336296Y409956D03*
X131064Y529844D03*
X131572Y505968D03*
X236728Y521716D03*
X218948Y522224D03*
X189992Y531368D03*
X200152Y519684D03*
X162052Y531876D03*
X338328Y523240D03*
X358648Y523748D03*
X336804Y569976D03*
X358140Y570484D03*
X337820Y546100D03*
X358140Y546608D03*
X130048Y281432D03*
X130556Y257556D03*
X162560Y255524D03*
X238760Y269748D03*
X197104Y270256D03*
X216408Y270256D03*
X190500Y256032D03*
X335788Y271780D03*
X359156Y270764D03*
X336804Y247904D03*
X360172Y248920D03*
X360680Y223520D03*
X336296Y223520D03*
X130556Y344424D03*
X131064Y320548D03*
X236220Y336296D03*
X218440Y336804D03*
X189484Y345948D03*
X199644Y334264D03*
X161544Y346456D03*
X338328Y339344D03*
X358648Y339852D03*
X336804Y386080D03*
X358140Y386588D03*
X337820Y362204D03*
X358140Y362712D03*
X130048Y92964D03*
X130556Y69088D03*
X162560Y67056D03*
X238760Y81280D03*
X197104Y81788D03*
X216408Y81788D03*
X190500Y67564D03*
X334772Y86868D03*
X358140Y85852D03*
X335788Y62992D03*
X359156Y64008D03*
X359664Y38608D03*
X335280Y38608D03*
X130048Y159512D03*
X130556Y135636D03*
X235712Y151384D03*
X217932Y151892D03*
X188976Y161036D03*
X199136Y149352D03*
X161036Y161544D03*
X337820Y154432D03*
X358140Y154940D03*
X336296Y201168D03*
X357632Y201676D03*
X337312Y177292D03*
X357632Y177800D03*
X132080Y-87376D03*
X132588Y-111252D03*
X164592Y-113284D03*
X240792Y-99060D03*
X199136Y-98552D03*
X218440Y-98552D03*
X192532Y-112776D03*
X335788Y-99568D03*
X359156Y-100584D03*
X336804Y-123444D03*
X360172Y-122428D03*
X360680Y-147828D03*
X336296Y-147828D03*
X131064Y-25908D03*
X131572Y-49784D03*
X236728Y-34036D03*
X218948Y-33528D03*
X189992Y-24384D03*
X200152Y-36068D03*
X162052Y-23876D03*
X337820Y-35560D03*
X358140Y-35052D03*
X336296Y11176D03*
X357632Y11684D03*
X337312Y-12700D03*
X357632Y-12192D03*
X131064Y1208532D03*
X131572Y1184656D03*
X163576Y1182624D03*
X239776Y1196848D03*
X198120Y1197356D03*
X217424Y1197356D03*
X191516Y1183132D03*
X335788Y1198880D03*
X359156Y1197864D03*
X336804Y1175004D03*
X360172Y1176020D03*
X360680Y1150620D03*
X336296Y1150620D03*
X130556Y1271524D03*
X131064Y1247648D03*
X236220Y1263396D03*
X218440Y1263904D03*
X189484Y1273048D03*
X199644Y1261364D03*
X161544Y1273556D03*
X334264Y1265428D03*
X354584Y1265936D03*
X332740Y1312164D03*
X354076Y1312672D03*
X333756Y1288288D03*
X354076Y1288796D03*
X130556Y1023620D03*
X131064Y999744D03*
X163068Y997712D03*
X239268Y1011936D03*
X197612Y1012444D03*
X216916Y1012444D03*
X191008Y998220D03*
X334772Y1012952D03*
X358140Y1011936D03*
X335788Y989076D03*
X359156Y990092D03*
X359664Y964692D03*
X335280Y964692D03*
X132080Y1086104D03*
X132588Y1062228D03*
X237236Y1080516D03*
X219964Y1078484D03*
X191008Y1087628D03*
X201168Y1075944D03*
X163068Y1088136D03*
X337312Y1082040D03*
X356616Y1081532D03*
X335280Y1126236D03*
X356616Y1126744D03*
X336296Y1102360D03*
X356616Y1102868D03*
X1024636Y-90424D03*
X1029716Y-129540D03*
X1031240Y298704D03*
X1038352Y258064D03*
X1039876Y729488D03*
X1048512Y692404D03*
X393700Y1244092D03*
X410464Y1244092D03*
X482092Y1244092D03*
X463804Y1244092D03*
X446532Y1243584D03*
X428752Y1244092D03*
X482600Y1215136D03*
X463804Y1215136D03*
X446532Y1215136D03*
X428752Y1215136D03*
X482092Y1229360D03*
X393192Y1228852D03*
X463296Y1228852D03*
X446532Y1228852D03*
X428752Y1228852D03*
X393192Y1058672D03*
X409956Y1058672D03*
X481584Y1058672D03*
X463296Y1058672D03*
X446024Y1058164D03*
X428244Y1058672D03*
X482092Y1029716D03*
X463296Y1029716D03*
X446024Y1029716D03*
X428244Y1029716D03*
X481584Y1043940D03*
X392684Y1043432D03*
X462788Y1043432D03*
X446024Y1043432D03*
X428244Y1043432D03*
X393700Y873760D03*
X410464Y873760D03*
X482092Y873760D03*
X463804Y873760D03*
X446532Y873252D03*
X428752Y873760D03*
X482600Y844804D03*
X463804Y844804D03*
X446532Y844804D03*
X428752Y844804D03*
X482092Y859028D03*
X393192Y858520D03*
X463296Y858520D03*
X446532Y858520D03*
X428752Y858520D03*
X393700Y687832D03*
X410464Y687832D03*
X482092Y687832D03*
X463804Y687832D03*
X446532Y687324D03*
X428752Y687832D03*
X482600Y658876D03*
X463804Y658876D03*
X446532Y658876D03*
X428752Y658876D03*
X482092Y673100D03*
X393192Y672592D03*
X463296Y672592D03*
X446532Y672592D03*
X428752Y672592D03*
X393192Y501396D03*
X409956Y501396D03*
X481584Y501396D03*
X463296Y501396D03*
X446024Y500888D03*
X428244Y501396D03*
X482092Y472440D03*
X463296Y472440D03*
X446024Y472440D03*
X428244Y472440D03*
X481584Y486664D03*
X392684Y486156D03*
X462788Y486156D03*
X446024Y486156D03*
X428244Y486156D03*
X393700Y316484D03*
X410464Y316484D03*
X482092Y316484D03*
X463804Y316484D03*
X446532Y315976D03*
X428752Y316484D03*
X482600Y287528D03*
X463804Y287528D03*
X446532Y287528D03*
X428752Y287528D03*
X482092Y301752D03*
X393192Y301244D03*
X463296Y301244D03*
X446532Y301244D03*
X428752Y301244D03*
X393700Y131064D03*
X410464Y131064D03*
X482092Y131064D03*
X463804Y131064D03*
X446532Y130556D03*
X428752Y131064D03*
X482600Y102108D03*
X463804Y102108D03*
X446532Y102108D03*
X428752Y102108D03*
X482092Y116332D03*
X393192Y115824D03*
X463296Y115824D03*
X446532Y115824D03*
X428752Y115824D03*
X391668Y-53848D03*
X408432Y-53848D03*
X480060Y-53848D03*
X461772Y-53848D03*
X444500Y-54356D03*
X426720Y-53848D03*
X480568Y-82804D03*
X461772Y-82804D03*
X444500Y-82804D03*
X426720Y-82804D03*
X480060Y-68580D03*
X391160Y-69088D03*
X461264Y-69088D03*
X444500Y-69088D03*
X426720Y-69088D03*
X1036320Y-152400D03*
X1056640Y-152400D03*
X1099820Y-152400D03*
X1076960Y-152400D03*
X1099820Y-165100D03*
X1076960Y-165100D03*
X1056640Y-165100D03*
X1036320Y-165100D03*
X1036320Y-177800D03*
X1099820Y-177800D03*
X1076960Y-177800D03*
X1056640Y-177800D03*
X1049020Y670560D03*
X1069340Y670560D03*
X1112520Y670560D03*
X1089660Y670560D03*
X1112520Y657860D03*
X1089660Y657860D03*
X1069340Y657860D03*
X1049020Y657860D03*
X1049020Y645160D03*
X1112520Y645160D03*
X1089660Y645160D03*
X1069340Y645160D03*
X1041400Y236220D03*
X1061720Y236220D03*
X1104900Y236220D03*
X1082040Y236220D03*
X1104900Y223520D03*
X1082040Y223520D03*
X1061720Y223520D03*
X1041400Y223520D03*
X1041400Y210820D03*
X1104900Y210820D03*
X1082040Y210820D03*
X1061720Y210820D03*
D58*
X1020572Y37084D03*
X1046226Y447294D03*
X1032256Y868172D03*
D57*
X1006856Y745236D03*
X1078992Y741680D03*
X1042416Y747776D03*
X1086612Y755396D03*
X997204Y312928D03*
X1070356Y309372D03*
X1033170Y315468D03*
X990092Y-75692D03*
X1062228Y-78740D03*
X1025144Y-73152D03*
D56*
X733044Y593852D03*
X731379Y652639D03*
X743340Y766572D03*
X646176Y380238D03*
X680720Y707136D03*
X640080Y702056D03*
X675640Y725424D03*
X673608Y756412D03*
X646176Y725424D03*
X691896Y764540D03*
X663194Y626618D03*
X680771Y715496D03*
X672846Y764794D03*
X657127Y717013D03*
D57*
X695960Y1141984D03*
X616712Y1043940D03*
X686308Y1140968D03*
X573532Y1072642D03*
X716816Y1148588D03*
X632460Y993648D03*
X707286Y1179576D03*
X569468Y983488D03*
M02*
